<?xml version="1.0" encoding="UTF-8" standalone="no"?>
<!-- Created with Inkscape (http://www.inkscape.org/) -->

<svg
   xmlns:dc="http://purl.org/dc/elements/1.1/"
   xmlns:cc="http://creativecommons.org/ns#"
   xmlns:rdf="http://www.w3.org/1999/02/22-rdf-syntax-ns#"
   xmlns:svg="http://www.w3.org/2000/svg"
   xmlns="http://www.w3.org/2000/svg"
   xmlns:sodipodi="http://sodipodi.sourceforge.net/DTD/sodipodi-0.dtd"
   xmlns:inkscape="http://www.inkscape.org/namespaces/inkscape"
   width="643"
   height="359"
   id="svg2"
   version="1.1"
   inkscape:version="0.92.3 (2405546, 2018-03-11)"
   sodipodi:docname="berlinToMoscow.svg"
   inkscape:export-filename="berlinToMoscow.png"
   inkscape:export-xdpi="96"
   inkscape:export-ydpi="96"
   viewBox="0 0 514.4 287.2">
  <title
     id="title3011">Aid for Axis and Allies</title>
  <defs
     id="defs4">
    <inkscape:path-effect
       effect="spiro"
       id="path-effect1008"
       is_visible="true" />
  </defs>
  <sodipodi:namedview
     id="base"
     pagecolor="#ffffff"
     bordercolor="#666666"
     borderopacity="1.0"
     inkscape:pageopacity="1"
     inkscape:pageshadow="2"
     inkscape:zoom="2.0762053"
     inkscape:cx="321.5"
     inkscape:cy="179.5"
     inkscape:document-units="px"
     inkscape:current-layer="layer1"
     showgrid="true"
     inkscape:window-width="1920"
     inkscape:window-height="1009"
     inkscape:window-x="0"
     inkscape:window-y="34"
     inkscape:window-maximized="1"
     inkscape:snap-global="true"
     showguides="true"
     inkscape:guide-bbox="true"
     width="1024px"
     inkscape:snap-bbox="true"
     inkscape:bbox-paths="false"
     inkscape:snap-grids="true"
     inkscape:snap-intersection-paths="true"
     fit-margin-top="20"
     fit-margin-right="20"
     fit-margin-bottom="20"
     fit-margin-left="20"
     scale-x="0.8">
    <inkscape:grid
       type="xygrid"
       id="grid2985"
       empspacing="10"
       visible="true"
       enabled="true"
       snapvisiblegridlinesonly="true"
       spacingx="1"
       spacingy="1"
       originx="0"
       originy="0"
       dotted="true" />
  </sodipodi:namedview>
  <metadata
     id="metadata7">
    <rdf:RDF>
      <cc:Work
         rdf:about="">
        <dc:format>image/svg+xml</dc:format>
        <dc:type
           rdf:resource="http://purl.org/dc/dcmitype/StillImage" />
        <dc:title>Aid for Axis and Allies</dc:title>
        <dc:creator>
          <cc:Agent>
            <dc:title>Geoffrey De Smet</dc:title>
          </cc:Agent>
        </dc:creator>
      </cc:Work>
    </rdf:RDF>
  </metadata>
  <g
     inkscape:label="Base"
     inkscape:groupmode="layer"
     id="layer1"
     transform="translate(-25.665362,-719.98639)">
    <g
       id="g995"
       transform="translate(-9.9999976,-128.24951)">
      <flowRoot
         style="font-style:normal;font-weight:normal;font-size:40px;line-height:1.25;font-family:sans-serif;letter-spacing:0px;word-spacing:0px;fill:#000000;fill-opacity:1;stroke:none"
         id="flowRoot983"
         xml:space="preserve"><flowRegion
           id="flowRegion985"><rect
             y="-18"
             x="-40"
             height="520"
             width="640"
             id="rect987" /></flowRegion><flowPara
           id="flowPara989" /></flowRoot>    </g>
    <g
       id="g1116"
       transform="matrix(0.52903599,0,0,0.52619244,-240.46078,411.41529)"
       style="stroke-width:1.89533114">
      <path
         inkscape:connector-curvature="0"
         id="path1093"
         d="m 940.15701,937.65604 9.29609,-17.66258 36.25477,-16.73297 23.24023,11.15531 29.7475,-5.57765 39.0436,27.88828 -8.9047,17.18077 -26.9506,13.14666 -85.45329,-14.46133 -16.2736,-14.93649"
         style="fill:#888a85;stroke:none;stroke-width:1.89533114px;stroke-linecap:butt;stroke-linejoin:miter;stroke-opacity:1" />
      <path
         inkscape:connector-curvature="0"
         id="path1010"
         d="m 556.22834,846.55432 -18.59219,176.62578 93.89055,-26.02906 21.38101,53.91736 49.2693,-42.762 2.78883,-182.20349 -30.67711,9.2961 -47.41008,-20.45141 -43.69164,64.14305 -11.15532,-3.71844 z"
         style="fill:none;stroke:#000000;stroke-width:7.58132458;stroke-linecap:butt;stroke-linejoin:miter;stroke-miterlimit:4;stroke-dasharray:none;stroke-opacity:1" />
      <path
         inkscape:connector-curvature="0"
         id="path1012"
         d="m 704.96584,826.10291 41.83242,-15.80336 22.31062,33.46594 37.18438,26.95867 -13.01453,9.2961 -20.45141,15.80336 40.90281,50.1989 48.33969,26.02907 -0.92961,39.04361 -23.24023,20.4514 -82.73524,-34.39556 -3.71843,14.87376 -49.2693,-3.7184"
         style="fill:none;stroke:#000000;stroke-width:7.58132458;stroke-linecap:butt;stroke-linejoin:miter;stroke-miterlimit:4;stroke-dasharray:none;stroke-opacity:1" />
      <path
         inkscape:connector-curvature="0"
         id="path1014"
         d="m 746.79826,810.29955 13.94414,-42.76203 31.60672,13.01453 16.73297,-26.95867 -23.24024,-28.81789 15.80336,-13.01453 60.42461,-0.92961 28.81789,-18.59219 14.87375,3.71844 34.39555,55.77656 -41.83242,107.83469 -16.73297,-12.08492 -48.33969,27.88828 -26.95867,-4.64805"
         style="fill:none;stroke:#000000;stroke-width:7.58132458;stroke-linecap:butt;stroke-linejoin:miter;stroke-miterlimit:4;stroke-dasharray:none;stroke-opacity:1" />
      <path
         inkscape:connector-curvature="0"
         id="path1016"
         d="m 837.89998,1031.5466 17.66258,31.6067 29.7475,-8.3665 24.16984,-14.8737 2.78883,-35.3252 31.60672,-26.95866 -3.71844,-39.9732 9.29609,-17.66258 -13.94414,-43.69164 -37.18437,-16.73297"
         style="fill:none;stroke:#000000;stroke-width:7.58132458;stroke-linecap:butt;stroke-linejoin:miter;stroke-miterlimit:4;stroke-dasharray:none;stroke-opacity:1" />
      <path
         inkscape:connector-curvature="0"
         id="path1018"
         d="m 940.15701,751.73416 66.00229,-0.92961 59.4949,-48.33969 40.9028,27.88829 -8.3664,180.34422 -20.4514,26.02906 -39.0436,-27.88828 -29.7475,5.57765 -23.24023,-11.15531 -36.25477,16.73297"
         style="fill:none;stroke:#000000;stroke-width:7.58132458;stroke-linecap:butt;stroke-linejoin:miter;stroke-miterlimit:4;stroke-dasharray:none;stroke-opacity:1" />
      <path
         inkscape:connector-curvature="0"
         id="path1020"
         d="m 1077.7392,936.72643 v 0 0 l -8.9047,17.18077 -26.9506,13.14666 -85.45329,-14.46133 -16.2736,-14.93649"
         style="fill:none;stroke:#000000;stroke-width:7.58132458;stroke-linecap:butt;stroke-linejoin:miter;stroke-miterlimit:4;stroke-dasharray:none;stroke-opacity:1" />
      <path
         inkscape:connector-curvature="0"
         id="path1022"
         d="m 909.4799,1039.9131 59.44004,29.6847 22.34932,27.608 47.32794,-20.3773 36.8107,-45.356 6.5733,-47.98531 -13.1467,-29.57999"
         style="fill:none;stroke:#000000;stroke-width:7.58132458;stroke-linecap:butt;stroke-linejoin:miter;stroke-miterlimit:4;stroke-dasharray:none;stroke-opacity:1" />
      <path
         inkscape:connector-curvature="0"
         id="path1024"
         d="m 1106.557,730.35315 65.4788,0.0608 13.804,-7.23067 26.2933,25.63599 -11.832,72.30664 36.8107,115.69063 -75.5933,25.63599 -32.8667,-37.46799 -3.944,-24.32132 -26.5172,10.03415"
         style="fill:none;stroke:#000000;stroke-width:7.58132458;stroke-linecap:butt;stroke-linejoin:miter;stroke-miterlimit:4;stroke-dasharray:none;stroke-opacity:1" />
      <path
         inkscape:connector-curvature="0"
         id="path1026"
         d="m 1212.1331,748.81927 75.5933,-20.37732 80.1947,32.20932 40.7546,2.62933 24.9787,25.63599 -19.72,69.67731 26.2933,33.52399 -1.3146,23.00666 -16.4334,1.972 -10.5173,24.97865 -67.048,5.25867 -11.832,19.71999 -48.6426,10.51733 -24.9787,37.46801 -28.9226,-50.61467 6.5733,-27.60799"
         style="fill:none;stroke:#000000;stroke-width:7.58132458;stroke-linecap:butt;stroke-linejoin:miter;stroke-miterlimit:4;stroke-dasharray:none;stroke-opacity:1" />
      <path
         inkscape:connector-curvature="0"
         id="path1028"
         d="m 1259.4611,1015.0392 -30.2373,52.5866 -49.9573,-4.6013 -40.7547,31.552 -9.86,-25.636 -53.2439,-37.468"
         style="fill:none;stroke:#000000;stroke-width:7.58132458;stroke-linecap:butt;stroke-linejoin:miter;stroke-miterlimit:4;stroke-dasharray:none;stroke-opacity:1" />
      <flowRoot
         transform="translate(615.93843,931.83362)"
         style="font-style:normal;font-weight:normal;font-size:32px;line-height:1.25;font-family:sans-serif;text-align:start;letter-spacing:0px;word-spacing:0px;text-anchor:start;fill:#a40000;fill-opacity:1;stroke:none;stroke-width:1.89533114"
         id="flowRoot879-3"
         xml:space="preserve"><flowRegion
           style="font-size:32px;text-align:start;text-anchor:start;fill:#a40000;stroke-width:1.89533114"
           id="flowRegion881-6"><rect
             style="font-size:32px;text-align:start;text-anchor:start;fill:#a40000;stroke-width:1.89533114"
             y="31.317829"
             x="-66.35659"
             height="50"
             width="380"
             id="rect883-7" /></flowRegion><flowPara
           id="flowPara885-5"
           style="stroke-width:1.89533114">Berlin</flowPara></flowRoot>      <rect
         y="953.24982"
         x="552.82806"
         height="10"
         width="10"
         id="rect1054"
         style="opacity:0.7;vector-effect:none;fill:#a40000;fill-opacity:1;stroke:none;stroke-width:7.58132458;stroke-linecap:butt;stroke-linejoin:miter;stroke-miterlimit:4;stroke-dasharray:none;stroke-dashoffset:0;stroke-opacity:1" />
      <flowRoot
         xml:space="preserve"
         id="flowRoot1062"
         style="font-style:normal;font-weight:normal;font-size:32px;line-height:1.25;font-family:sans-serif;text-align:start;letter-spacing:0px;word-spacing:0px;text-anchor:start;fill:#a40000;fill-opacity:1;stroke:none;stroke-width:1.89533114"
         transform="translate(1308.835,755.01942)"><flowRegion
           id="flowRegion1058"
           style="font-size:32px;text-align:start;text-anchor:start;fill:#a40000;stroke-width:1.89533114"><rect
             id="rect1056"
             width="380"
             height="50"
             x="-66.35659"
             y="31.317829"
             style="font-size:32px;text-align:start;text-anchor:start;fill:#a40000;stroke-width:1.89533114" /></flowRegion><flowPara
           id="flowPara1060"
           style="stroke-width:1.89533114">Moscow</flowPara></flowRoot>      <rect
         style="opacity:0.7;vector-effect:none;fill:#a40000;fill-opacity:1;stroke:none;stroke-width:7.58132458;stroke-linecap:butt;stroke-linejoin:miter;stroke-miterlimit:4;stroke-dasharray:none;stroke-dashoffset:0;stroke-opacity:1"
         id="rect1064"
         width="10"
         height="10"
         x="1227.5784"
         y="797.72058" />
    </g>
    <g
       id="g1319"
       transform="translate(-170.69462,118.58378)">
      <rect
         inkscape:export-ydpi="90"
         inkscape:export-xdpi="90"
         inkscape:export-filename="../../../src/main/res/drawable-xhdpi/infantry_icon.png"
         ry="5"
         rx="5"
         y="750.53271"
         x="247.87598"
         height="48"
         width="48"
         id="rect3017"
         style="fill:#ffffff;fill-opacity:1;stroke:#000000;stroke-opacity:1" />
      <path
         sodipodi:nodetypes="sssssssssssssssscsssssssssssssss"
         inkscape:connector-curvature="0"
         id="path2994"
         d="m 254.38159,788.3185 c -0.73027,-0.8132 -1.76251,-2.48927 -1.52677,-3.05353 0.72281,-1.73005 4.49519,-2.33048 6.10707,-4.24101 0.61988,-0.73474 1.42065,-1.56523 1.35712,-2.54462 -0.0346,-0.53324 -1.16759,-4.18723 -0.33928,-6.61597 0.22459,-0.65854 -0.4085,-1.29812 -1.35712,-2.20534 -0.5084,-0.48621 3.50115,-3.84882 3.73209,-5.93742 0.10117,-0.91494 2.09095,-1.1863 2.71425,-0.50892 1.29273,1.40488 1.27,1.03109 1.6311,-0.52409 0.0425,-0.18315 -0.66133,-0.38663 -0.23156,-0.83304 1.16881,-1.21407 3.75089,-2.63493 4.87716,1.78123 0.0895,0.35085 -0.4875,-0.18676 -0.55133,0.16964 -0.13754,0.76794 -0.58066,1.84426 -0.63615,2.45979 -0.0203,0.22527 -0.66477,-0.22577 -0.67856,0 -0.23996,3.92695 3.46883,7.69335 6.64166,6.95527 0.85697,-0.19936 4.09985,-0.73891 8.19411,-0.86104 1.61542,-0.0482 -2.13786,1.54303 6.61599,0.59374 -1.4814,1.77409 -9.79477,1.63186 -12.43513,2.55745 0,0 -0.36815,-0.84189 -0.84821,-0.76339 -2.18506,0.3573 -7.50377,0.0138 -8.16842,0.50892 -0.79654,0.59341 2.27264,3.47338 2.29015,5.59814 0.0118,1.43224 -0.68678,3.79562 -0.93303,5.59814 -0.1342,0.98235 2.27896,2.1293 2.37497,3.22318 0.0156,0.17813 0.009,0.50316 -0.16964,0.50892 -1.29728,0.0418 -4.86945,-0.045 -4.74994,-1.01785 0.13565,-1.10401 0.72542,-2.86006 0.50892,-4.24101 -0.24663,-1.57316 0.47025,-3.4942 -0.50892,-4.74993 -0.70406,-0.90295 -2.13629,-1.54762 -3.22317,-1.18749 -1.47392,0.48836 -1.41966,2.83149 -2.54461,3.90173 -1.70745,1.62442 -4.67174,1.69324 -6.10706,3.56245 -0.71562,0.93196 0.43933,2.08132 0.16964,2.37497 -0.51031,0.55565 -1.70125,0.0524 -2.20533,-0.50892 z"
         style="fill:#555753;fill-opacity:1;stroke:none" />
    </g>
    <flowRoot
       xml:space="preserve"
       id="flowRoot879"
       style="font-style:normal;font-weight:normal;font-size:32px;line-height:1.25;font-family:sans-serif;text-align:center;letter-spacing:0px;word-spacing:0px;text-anchor:middle;fill:#000000;fill-opacity:1;stroke:none"
       transform="translate(211.00907,683.79896)"><flowRegion
         id="flowRegion881"
         style="font-size:32px;text-align:center;text-anchor:middle"><rect
           id="rect883"
           width="500"
           height="40.000004"
           x="-179.30769"
           y="48.563229"
           style="font-size:32px;text-align:center;text-anchor:middle" /></flowRegion><flowPara
         id="flowPara885">Berlin to Moscow: 5 rounds</flowPara></flowRoot>    <flowRoot
       transform="translate(301.0979,839.43881)"
       style="font-style:normal;font-weight:normal;font-size:21.33333397px;line-height:1.25;font-family:sans-serif;text-align:center;letter-spacing:0px;word-spacing:0px;text-anchor:middle;fill:#000000;fill-opacity:1;stroke:none"
       id="flowRoot2277"
       xml:space="preserve"><flowRegion
         style="font-size:21.33333397px;text-align:center;text-anchor:middle"
         id="flowRegion2273"><rect
           style="font-size:21.33333397px;text-align:center;text-anchor:middle"
           y="48.563229"
           x="-179.30769"
           height="40.031891"
           width="72.893158"
           id="rect2271" /></flowRegion><flowPara
         id="flowPara2275">1</flowPara></flowRoot>    <flowRoot
       xml:space="preserve"
       id="flowRoot2285"
       style="font-style:normal;font-weight:normal;font-size:21.33333397px;line-height:1.25;font-family:sans-serif;text-align:center;letter-spacing:0px;word-spacing:0px;text-anchor:middle;fill:#000000;fill-opacity:1;stroke:none"
       transform="translate(353.67893,768.27915)"><flowRegion
         id="flowRegion2281"
         style="font-size:21.33333397px;text-align:center;text-anchor:middle"><rect
           id="rect2279"
           width="72.893158"
           height="40.031891"
           x="-179.30769"
           y="48.563229"
           style="font-size:21.33333397px;text-align:center;text-anchor:middle" /></flowRegion><flowPara
         id="flowPara2283">2</flowPara></flowRoot>    <flowRoot
       transform="translate(372.25756,843.64529)"
       style="font-style:normal;font-weight:normal;font-size:21.33333397px;line-height:1.25;font-family:sans-serif;text-align:center;letter-spacing:0px;word-spacing:0px;text-anchor:middle;fill:#000000;fill-opacity:1;stroke:none"
       id="flowRoot2293"
       xml:space="preserve"><flowRegion
         style="font-size:21.33333397px;text-align:center;text-anchor:middle"
         id="flowRegion2289"><rect
           style="font-size:21.33333397px;text-align:center;text-anchor:middle"
           y="48.563229"
           x="-179.30769"
           height="40.031891"
           width="72.893158"
           id="rect2287" /></flowRegion><flowPara
         id="flowPara2291">2</flowPara></flowRoot>    <flowRoot
       transform="translate(436.75696,790.01264)"
       style="font-style:normal;font-weight:normal;font-size:21.33333397px;line-height:1.25;font-family:sans-serif;text-align:center;letter-spacing:0px;word-spacing:0px;text-anchor:middle;fill:#000000;fill-opacity:1;stroke:none"
       id="flowRoot2301"
       xml:space="preserve"><flowRegion
         style="font-size:21.33333397px;text-align:center;text-anchor:middle"
         id="flowRegion2297"><rect
           style="font-size:21.33333397px;text-align:center;text-anchor:middle"
           y="48.563229"
           x="-179.30769"
           height="40.031891"
           width="72.893158"
           id="rect2295" /></flowRegion><flowPara
         id="flowPara2299">3</flowPara></flowRoot>    <flowRoot
       xml:space="preserve"
       id="flowRoot2309"
       style="font-style:normal;font-weight:normal;font-size:21.33333397px;line-height:1.25;font-family:sans-serif;text-align:center;letter-spacing:0px;word-spacing:0px;text-anchor:middle;fill:#000000;fill-opacity:1;stroke:none"
       transform="translate(431.14832,885.71012)"><flowRegion
         id="flowRegion2305"
         style="font-size:21.33333397px;text-align:center;text-anchor:middle"><rect
           id="rect2303"
           width="72.893158"
           height="40.031891"
           x="-179.30769"
           y="48.563229"
           style="font-size:21.33333397px;text-align:center;text-anchor:middle" /></flowRegion><flowPara
         id="flowPara2307">3</flowPara></flowRoot>    <flowRoot
       transform="translate(518.78337,882.55526)"
       style="font-style:normal;font-weight:normal;font-size:21.33333397px;line-height:1.25;font-family:sans-serif;text-align:center;letter-spacing:0px;word-spacing:0px;text-anchor:middle;fill:#000000;fill-opacity:1;stroke:none"
       id="flowRoot2317"
       xml:space="preserve"><flowRegion
         style="font-size:21.33333397px;text-align:center;text-anchor:middle"
         id="flowRegion2313"><rect
           style="font-size:21.33333397px;text-align:center;text-anchor:middle"
           y="48.563229"
           x="-179.30769"
           height="40.031891"
           width="72.893158"
           id="rect2311" /></flowRegion><flowPara
         id="flowPara2315">4</flowPara></flowRoot>    <flowRoot
       xml:space="preserve"
       id="flowRoot2325"
       style="font-style:normal;font-weight:normal;font-size:21.33333397px;line-height:1.25;font-family:sans-serif;text-align:center;letter-spacing:0px;word-spacing:0px;text-anchor:middle;fill:#000000;fill-opacity:1;stroke:none"
       transform="translate(516.68013,795.97183)"><flowRegion
         id="flowRegion2321"
         style="font-size:21.33333397px;text-align:center;text-anchor:middle"><rect
           id="rect2319"
           width="72.893158"
           height="40.031891"
           x="-179.30769"
           y="48.563229"
           style="font-size:21.33333397px;text-align:center;text-anchor:middle" /></flowRegion><flowPara
         id="flowPara2323">4</flowPara></flowRoot>    <flowRoot
       transform="translate(596.6033,805.78696)"
       style="font-style:normal;font-weight:normal;font-size:21.33333397px;line-height:1.25;font-family:sans-serif;text-align:center;letter-spacing:0px;word-spacing:0px;text-anchor:middle;fill:#000000;fill-opacity:1;stroke:none"
       id="flowRoot2333"
       xml:space="preserve"><flowRegion
         style="font-size:21.33333397px;text-align:center;text-anchor:middle"
         id="flowRegion2329"><rect
           style="font-size:21.33333397px;text-align:center;text-anchor:middle"
           y="48.563229"
           x="-179.30769"
           height="40.031891"
           width="72.893158"
           id="rect2327" /></flowRegion><flowPara
         id="flowPara2331">5</flowPara></flowRoot>  </g>
</svg>
