<?xml version="1.0" encoding="UTF-8" standalone="no"?>
<!-- Created with Inkscape (http://www.inkscape.org/) -->

<svg
   xmlns:dc="http://purl.org/dc/elements/1.1/"
   xmlns:cc="http://creativecommons.org/ns#"
   xmlns:rdf="http://www.w3.org/1999/02/22-rdf-syntax-ns#"
   xmlns:svg="http://www.w3.org/2000/svg"
   xmlns="http://www.w3.org/2000/svg"
   xmlns:sodipodi="http://sodipodi.sourceforge.net/DTD/sodipodi-0.dtd"
   xmlns:inkscape="http://www.inkscape.org/namespaces/inkscape"
   width="108.03262mm"
   height="127.80148mm"
   viewBox="0 0 108.03262 127.80148"
   version="1.1"
   id="svg8"
   sodipodi:docname="majorStaminaGloomhaven.svg"
   inkscape:version="0.92.3 (2405546, 2018-03-11)">
  <defs
     id="defs2" />
  <sodipodi:namedview
     id="base"
     pagecolor="#ffffff"
     bordercolor="#666666"
     borderopacity="1.0"
     inkscape:pageopacity="0.0"
     inkscape:pageshadow="2"
     inkscape:zoom="1.979899"
     inkscape:cx="39.264768"
     inkscape:cy="226.98531"
     inkscape:document-units="mm"
     inkscape:current-layer="layer2"
     showgrid="false"
     showguides="false"
     inkscape:snap-grids="false"
     inkscape:window-width="2147"
     inkscape:window-height="1291"
     inkscape:window-x="38"
     inkscape:window-y="36"
     inkscape:window-maximized="0">
    <inkscape:grid
       type="xygrid"
       id="grid297"
       originx="-49.082168"
       originy="-142.53856" />
  </sodipodi:namedview>
  <metadata
     id="metadata5">
    <rdf:RDF>
      <cc:Work
         rdf:about="">
        <dc:format>image/svg+xml</dc:format>
        <dc:type
           rdf:resource="http://purl.org/dc/dcmitype/StillImage" />
        <dc:title></dc:title>
      </cc:Work>
    </rdf:RDF>
  </metadata>
  <g
     inkscape:label="bottle"
     inkscape:groupmode="layer"
     id="layer1"
     style="display:inline"
     transform="translate(-49.082171,-26.659954)">
    <g
       id="g567"
       style="fill:#aa4400">
      <path
         sodipodi:nodetypes="ccccc"
         inkscape:connector-curvature="0"
         id="rect309"
         d="m 78.117052,30.969905 16.201976,-4.309951 -1.017247,15.533651 -8.444605,2.45838 z"
         style="fill:#aa4400;fill-opacity:1;stroke-width:0.23697536" />
      <path
         sodipodi:nodetypes="ccccc"
         inkscape:connector-curvature="0"
         id="rect309-3"
         d="m 81.721183,30.035541 -12.593836,3.374509 8.64779,12.943912 8.542428,-2.093282 z"
         style="fill:#aa4400;fill-opacity:1;stroke-width:0.23697536" />
    </g>
    <g
       id="g563"
       style="fill:#ffb380">
      <g
         style="fill:#ffb380"
         id="g541">
        <path
           style="fill:#ffb380;fill-opacity:1;stroke-width:0.26458332"
           id="path12"
           sodipodi:type="arc"
           sodipodi:cx="71.164902"
           sodipodi:cy="132.75089"
           sodipodi:rx="50.270828"
           sodipodi:ry="58.208324"
           sodipodi:start="4.7115988"
           sodipodi:end="5.885224"
           d="M 71.125179,74.542579 A 50.270828,58.208324 0 0 1 117.50721,110.19284 L 71.164902,132.75089 Z"
           transform="rotate(-15)" />
        <path
           style="fill:#ffb380;fill-opacity:1;stroke-width:0.28883347"
           id="path20"
           sodipodi:type="arc"
           sodipodi:cx="71.164902"
           sodipodi:cy="132.75089"
           sodipodi:rx="54.673805"
           sodipodi:ry="43.845238"
           sodipodi:start="5.7086144"
           sodipodi:end="1.5766984"
           d="m 117.05949,108.92211 a 54.673805,43.845238 0 0 1 2.05828,44.89022 54.673805,43.845238 0 0 1 -48.275555,22.78303 l 0.322687,-43.84447 z"
           transform="rotate(-15)" />
        <rect
           style="fill:#ffb380;fill-opacity:1;stroke-width:0.1460917"
           id="rect22"
           width="10.394343"
           height="17.4814"
           x="-81.559235"
           y="59.707001"
           transform="matrix(-0.96592583,0.25881905,0.25881905,0.96592583,0,0)" />
        <path
           style="fill:#ffb380;fill-opacity:1;stroke-width:0.26458332"
           id="path12-3"
           sodipodi:type="arc"
           sodipodi:cx="-71.164902"
           sodipodi:cy="132.75089"
           sodipodi:rx="50.270828"
           sodipodi:ry="58.208324"
           sodipodi:start="4.5855508"
           sodipodi:end="5.885224"
           d="m -77.524079,75.010159 a 50.270828,58.208324 0 0 1 52.70149,35.182681 l -46.342313,22.55805 z"
           transform="matrix(-0.96592583,0.25881905,0.25881905,0.96592583,0,0)" />
        <path
           style="fill:#ffb380;fill-opacity:1;stroke-width:0.28883347"
           id="path20-6"
           sodipodi:type="arc"
           sodipodi:cx="-71.164902"
           sodipodi:cy="132.75089"
           sodipodi:rx="54.673805"
           sodipodi:ry="43.845238"
           sodipodi:start="5.7086144"
           sodipodi:end="1.5766984"
           d="m -25.270311,108.92211 a 54.673805,43.845238 0 0 1 2.058277,44.89022 54.673805,43.845238 0 0 1 -48.275555,22.78303 l 0.322687,-43.84447 z"
           transform="matrix(-0.96592583,0.25881905,0.25881905,0.96592583,0,0)" />
        <rect
           style="fill:#ffb380;fill-opacity:1;stroke-width:0.14609171"
           id="rect22-7"
           width="13.234132"
           height="18.242315"
           x="60.770565"
           y="59.707005"
           transform="rotate(-15)" />
      </g>
      <rect
         transform="rotate(-15)"
         ry="1.5119054"
         y="59.707001"
         x="68.759476"
         height="5.3861599"
         width="15.256615"
         id="rect303"
         style="fill:#ffb380;fill-opacity:1;stroke-width:0.28828359" />
      <rect
         transform="matrix(-0.96592583,0.25881905,0.25881905,0.96592583,0,0)"
         ry="1.5119054"
         y="59.707005"
         x="-73.904411"
         height="5.3861599"
         width="15.590701"
         id="rect303-5"
         style="fill:#ffb380;fill-opacity:1;stroke-width:0.29142287" />
    </g>
  </g>
  <g
     inkscape:groupmode="layer"
     id="layer2"
     inkscape:label="Cap M"
     style="display:inline"
     transform="translate(-49.082171,-26.659954)">
    <path
       style="fill:#2b1100;fill-opacity:1;stroke-width:0.52038163"
       id="path523"
       d="m 61.392062,127.23477 c 0.211101,1.76673 0.969349,3.42054 1.717334,5.051 0.794574,1.69543 1.795386,3.32445 3.384039,4.52783 0.440039,0.20897 0.704444,0.40545 1.225325,0.39244 1.66714,-0.0417 6.031906,-4.43669 -1.113881,1.75852 2.907654,-3.21852 4.744464,-7.08483 6.624659,-10.82494 3.171235,-6.53009 5.606215,-13.30899 7.846718,-20.12774 2.048557,-6.33097 3.615524,-12.768222 4.826701,-19.263547 0.776719,-3.839979 1.040269,-7.732943 1.399897,-11.613985 0.06293,-0.881016 0.157446,-1.762659 0.175647,-2.645963 0.0027,-0.131117 -0.0025,-0.262352 -0.0092,-0.39337 -0.0031,-0.06127 -0.07343,-0.144201 -0.02004,-0.1831 1.43553,-1.046772 2.942513,-2.01382 4.413769,-3.020729 -0.494612,2.540772 -0.494401,5.132746 -0.491654,7.70306 -0.03636,5.311428 0.46998,10.600475 1.112798,15.875462 0.773378,5.727042 2.093718,11.383322 3.730248,16.961232 1.03404,2.79693 1.80162,6.06826 4.012298,8.37877 0.25811,0.26975 0.57943,0.48629 0.86914,0.72943 0.90848,0.45228 1.71581,0.53375 2.59413,-0.0495 0.32117,-0.2134 1.15413,-0.98881 0.85299,-0.75358 -3.33053,2.6017 -3.79701,3.56785 -1.98912,0.9758 2.81379,-4.86243 4.12355,-10.23643 5.32994,-15.55418 1.53364,-6.934262 2.24087,-13.973383 2.58833,-21.023803 0.19016,-5.821934 -0.11388,-11.639062 -0.66887,-17.438249 -0.26083,-2.40045 -0.55223,-4.797531 -0.86819,-7.192621 -0.67898,-1.751441 -0.34137,-0.715112 4.50999,-3.262457 0.20831,-0.109379 0.0816,0.423635 0.12524,0.634998 0.2659,1.284207 0.58762,2.555735 0.91026,3.82952 1.28067,5.093818 3.18697,10.040315 5.18695,14.940493 2.74697,6.649017 6.33396,12.979775 10.20029,19.161647 2.87488,4.39845 6.05776,8.675942 9.84638,12.503232 0.58272,0.58864 1.20232,1.14765 1.80346,1.72147 1.96239,1.58503 3.94505,3.69015 6.66858,4.23811 0.27997,0.0563 0.57092,0.0536 0.8564,0.0803 0.20873,-0.0458 0.43387,-0.0517 0.62622,-0.13751 0.16949,-0.0749 0.28663,-0.21976 0.42998,-0.32951 -1.26754,1.07406 -2.53508,2.14812 -3.80262,3.22219 0,0 4.65732,-3.1243 4.65732,-3.1243 v 0 c -1.46816,1.33551 -2.87714,2.7244 -4.40449,4.00651 -0.15446,0.12954 -0.38999,0.16031 -0.5992,0.19379 -0.24015,0.038 -0.48748,0.013 -0.73115,0.0198 -0.306,-0.0558 -0.61939,-0.0854 -0.9179,-0.16716 -2.74221,-0.74995 -4.7204,-2.8497 -6.70316,-4.5537 -0.59709,-0.58924 -1.21202,-1.16463 -1.79131,-1.76771 -3.74919,-3.90314 -6.92687,-8.22285 -9.80229,-12.662312 -3.86968,-6.19979 -7.47125,-12.540573 -10.30019,-19.178921 -2.04755,-4.867913 -4.01385,-9.775836 -5.42755,-14.824133 -0.3587,-1.245852 -0.71217,-2.492267 -1.04899,-3.742932 -0.0524,-0.195096 -0.30638,-0.436648 -0.15515,-0.585706 1.34401,-1.325157 2.97112,-2.400622 4.42851,-3.627656 0.0349,-0.0293 -0.095,0.0126 -0.14257,0.01912 -0.0104,2.45962 0.52511,4.912026 0.62035,7.367873 0.47328,5.85665 0.74349,11.726471 0.55828,17.599558 -0.34257,7.05899 -1.02976,14.106587 -2.50868,21.057949 -1.14391,5.29564 -2.39203,10.63048 -5.00549,15.53659 -2.0089,3.18294 -0.89566,1.6995 -5.88672,6.15633 -0.82681,0.73831 -1.963228,1.13962 -3.113088,0.78682 -0.35022,-0.1073 -0.64954,-0.31684 -0.97431,-0.47528 -0.30671,-0.27415 -0.6465,-0.52198 -0.92013,-0.82245 -2.20313,-2.4192 -2.96276,-5.74567 -3.995685,-8.63159 -1.59776,-5.61809 -2.901374,-11.3063 -3.72329,-17.057562 -0.672553,-5.25158 -1.230161,-10.516242 -1.287324,-15.806314 -0.05513,-2.539622 -0.09756,-5.09029 0.225505,-7.618439 1.513948,-1.239223 2.981381,-2.524802 4.541855,-3.717663 0.0659,-0.05035 0.01649,0.153801 0.01941,0.23094 0.0054,0.148648 0.01232,0.297563 0.0056,0.446176 -0.04122,0.910462 -0.187775,1.816812 -0.25026,2.725802 -0.472971,3.931599 -0.732487,7.887365 -1.561713,11.780271 -1.265002,6.537237 -2.855392,13.019817 -4.915658,19.399059 -2.214165,6.79366 -4.606649,13.55022 -7.673113,20.08501 -1.810852,3.71658 -3.601658,7.50713 -6.273085,10.81475 -1.636805,1.43967 -3.228634,2.9208 -4.910414,4.31899 -0.256552,0.21318 -0.573954,0.36507 -0.889288,0.50283 -1.06585,0.46555 -2.08423,0.27695 -3.016738,-0.31718 -1.612804,-1.29096 -2.701497,-2.95945 -3.529929,-4.73034 -0.769479,-1.64912 -1.550301,-3.30771 -1.90584,-5.07513 0,0 4.403462,-3.4332 4.403462,-3.4332 z"
       inkscape:connector-curvature="0" />
  </g>
  <g
     inkscape:groupmode="layer"
     id="layer3"
     inkscape:label="Low m"
     style="display:none"
     transform="translate(-49.082171,-26.659954)">
    <path
       style="display:inline;fill:#502d16;fill-opacity:1;stroke-width:0.46713972"
       id="path354"
       d="m 52.871802,116.74711 c 0.574697,-2.19176 1.11341,-4.40309 1.652276,-6.61413 0.849955,-3.32306 1.797341,-6.59029 2.750803,-9.85207 0.915521,-3.000676 1.802521,-6.022351 2.791366,-8.973628 0.6467,-1.868157 1.373544,-3.687493 2.322154,-5.263888 0.59569,-0.692092 2.633877,-5.607631 4.506412,-4.723282 0.426999,0.201659 0.599339,0.450324 0.963679,0.833156 1.542934,1.992012 2.560486,4.673488 3.627935,7.206244 1.747183,4.217532 3.151718,8.697912 4.468263,13.227538 1.488022,5.14254 2.569829,10.49507 3.480794,15.90793 0.730799,4.62578 1.307475,9.295 1.641873,14.01702 0.163959,2.35761 0.318585,4.73862 0.15432,7.10483 -0.253008,2.25117 -2.064566,6.48171 -3.360491,4.54376 -0.346604,-0.51832 -0.483123,-1.38064 -0.637816,-2.03388 -0.622331,-3.18901 -0.745136,-6.5184 -0.794016,-9.81483 -0.02721,-5.07152 0.464285,-10.10416 0.970881,-15.10863 0.53797,-5.49514 1.372025,-10.91545 2.257844,-16.30958 0.698618,-4.447778 1.656003,-8.78979 2.720687,-13.075487 0.789404,-3.115092 1.777026,-6.106895 2.99673,-8.909162 1.247417,-2.656779 2.859916,-4.723108 4.464624,-6.98169 0.53762,-0.756714 1.188068,-1.118227 1.878741,-1.453752 1.660516,-0.465134 3.075235,0.664827 4.40332,1.983031 1.801351,2.033213 3.113351,4.719894 4.251769,7.559681 1.41877,3.648819 2.30666,7.652458 3.15041,11.642465 0.82506,4.21187 1.44776,8.502164 1.92706,12.824744 0.3432,3.17858 0.64524,6.37665 0.73491,9.59439 10e-4,0.83953 0.0372,1.6793 9.8e-4,2.51841 -0.003,0.06 -0.0464,0.73062 -0.0651,0.75369 -1.04289,1.29062 -2.14005,2.48475 -3.21007,3.72715 -0.55242,-2.16922 -0.39775,-4.60711 -0.33131,-6.87608 0.12274,-4.5037 0.74009,-8.91902 1.39637,-13.30808 0.74093,-4.763438 1.59922,-9.486538 2.48912,-14.194671 0.66115,-3.623612 1.46508,-7.188826 2.33115,-10.717949 0.51943,-2.190527 1.25325,-4.243961 2.21168,-6.088981 0.76145,-0.8461 2.61819,-5.336643 4.52811,-5.272266 0.3971,0.01343 0.54065,0.148768 0.90642,0.354867 1.16744,0.844842 1.84212,2.387484 2.47176,3.979554 0.84876,2.410256 1.46123,4.978139 2.17173,7.478147 0.99345,3.565848 2.16465,6.999766 3.50397,10.312729 1.22191,2.907863 2.56746,5.742079 4.26684,8.105817 0.30737,0.427495 0.6382,0.817442 0.95728,1.226162 1.8349,2.218935 4.02972,3.447275 6.31044,4.289381 1.99216,0.65885 4.03163,0.79565 6.06591,0.77388 1.8658,-0.1377 3.72938,-0.36536 5.57924,-0.74853 1.60488,-0.428696 3.14728,-1.139076 4.60317,-2.209116 0.37636,-0.32218 0.85246,-0.70721 1.20229,-1.09518 0.17353,-0.19246 0.64637,-0.852859 0.4928,-0.627138 -2.87985,4.232554 -3.07736,4.633964 -2.05477,2.807918 0,0 3.2527,-3.546928 3.2527,-3.546928 v 0 c -1.42164,2.884148 -3.20114,5.487244 -5.37312,7.108924 -1.49186,1.00518 -3.06276,1.69072 -4.68751,2.06895 -1.86224,0.36059 -3.73706,0.58563 -5.61437,0.68818 -2.05831,-0.005 -4.12181,-0.18853 -6.1306,-0.89409 -2.32695,-0.90955 -4.5606,-2.21636 -6.42908,-4.503 -0.32393,-0.422686 -0.65914,-0.827616 -0.97177,-1.268066 -1.71117,-2.410904 -3.08148,-5.267609 -4.32366,-8.212521 -1.35679,-3.318754 -2.55202,-6.755864 -3.57731,-10.321769 -0.71707,-2.461857 -1.34427,-4.985183 -2.17355,-7.373217 -0.58252,-1.462085 -1.18544,-2.925022 -2.29169,-3.63824 -0.32962,-0.134858 -0.40989,-0.22074 -0.7542,-0.157216 -1.41869,0.26178 -3.56178,4.666966 1.32625,-2.862923 -1.02917,1.772634 -1.80001,3.81801 -2.34744,5.999802 -0.89933,3.531073 -1.72125,7.109621 -2.40263,10.743964 -0.9091,4.703082 -1.77128,9.427868 -2.52135,14.19087 -0.64913,4.339116 -1.27314,8.700856 -1.37857,13.156226 -0.0574,2.14097 -0.15285,4.34877 0.24149,6.4387 -6.561567,9.29276 -3.00816,5.51995 -2.78946,3.54531 0.0927,-0.83622 0.035,-1.68275 0.0634,-2.52449 -0.0177,-3.22331 -0.31494,-6.4295 -0.64065,-9.61307 -0.4469,-4.31164 -1.05889,-8.585476 -1.87393,-12.782611 -0.83667,-3.942805 -1.7099,-7.902682 -3.118478,-11.505278 -1.107291,-2.762135 -2.389655,-5.373757 -4.157589,-7.323673 -1.261754,-1.200456 -2.598242,-2.226848 -4.138717,-1.578849 -0.563464,0.34738 -0.674992,0.361792 -1.180922,0.900067 -0.19496,0.207441 -0.719096,0.936481 -0.554743,0.678603 4.343851,-6.816658 1.927402,-2.9134 1.097685,-1.303935 -1.274364,2.757608 -2.273558,5.751207 -3.094402,8.853075 -1.096341,4.282136 -2.08346,8.625308 -2.797519,13.081145 -0.901981,5.381566 -1.755204,10.791036 -2.289207,16.280766 -0.504399,4.95882 -0.989282,9.94742 -0.962837,14.97287 0.0471,3.21361 0.172865,6.46223 0.795404,9.56508 0.807304,3.26629 0.957658,0.95476 -2.267254,5.66985 -0.06852,0.1001 0.0895,-0.25105 0.13428,-0.37663 0.283256,-2.35268 0.139535,-4.75635 0.0044,-7.12178 -0.288349,-4.72693 -0.820352,-9.40357 -1.546737,-14.03048 -0.893687,-5.38948 -1.956273,-10.72024 -3.442612,-15.83366 -1.313366,-4.49 -2.713169,-8.933416 -4.479136,-13.090813 -1.055396,-2.438264 -2.061114,-5.041603 -3.590486,-6.921985 -0.308041,-0.293956 -0.461706,-0.513749 -0.825095,-0.607844 -1.396819,-0.361675 -3.871852,4.962122 1.460048,-3.280683 -1.027727,1.492587 -1.771782,3.322943 -2.44567,5.185302 -1.028535,2.935078 -1.900039,5.980746 -2.835678,8.980117 -0.952391,3.24225 -1.892991,6.492416 -2.74346,9.795406 -0.5216,2.17558 -1.047003,4.3485 -1.563937,6.52594 0,0 -3.212453,3.72411 -3.212453,3.72411 z"
       inkscape:connector-curvature="0" />
  </g>
</svg>
