<?xml version="1.0" encoding="UTF-8" standalone="no"?>
<!-- Created with Inkscape (http://www.inkscape.org/) -->

<svg
   xmlns:dc="http://purl.org/dc/elements/1.1/"
   xmlns:cc="http://creativecommons.org/ns#"
   xmlns:rdf="http://www.w3.org/1999/02/22-rdf-syntax-ns#"
   xmlns:svg="http://www.w3.org/2000/svg"
   xmlns="http://www.w3.org/2000/svg"
   xmlns:sodipodi="http://sodipodi.sourceforge.net/DTD/sodipodi-0.dtd"
   xmlns:inkscape="http://www.inkscape.org/namespaces/inkscape"
   width="108.03262mm"
   height="127.80148mm"
   viewBox="0 0 108.03262 127.80148"
   version="1.1"
   id="svg8"
   sodipodi:docname="minorStaminaGloomhaven.svg"
   inkscape:version="0.92.3 (2405546, 2018-03-11)">
  <defs
     id="defs2" />
  <sodipodi:namedview
     id="base"
     pagecolor="#ffffff"
     bordercolor="#666666"
     borderopacity="1.0"
     inkscape:pageopacity="0.0"
     inkscape:pageshadow="2"
     inkscape:zoom="1.4"
     inkscape:cx="94.753759"
     inkscape:cy="271.43477"
     inkscape:document-units="mm"
     inkscape:current-layer="layer3"
     showgrid="false"
     showguides="false"
     inkscape:snap-grids="false"
     inkscape:window-width="2147"
     inkscape:window-height="1291"
     inkscape:window-x="38"
     inkscape:window-y="36"
     inkscape:window-maximized="0">
    <inkscape:grid
       type="xygrid"
       id="grid297"
       originx="-49.082168"
       originy="-142.53856" />
  </sodipodi:namedview>
  <metadata
     id="metadata5">
    <rdf:RDF>
      <cc:Work
         rdf:about="">
        <dc:format>image/svg+xml</dc:format>
        <dc:type
           rdf:resource="http://purl.org/dc/dcmitype/StillImage" />
        <dc:title></dc:title>
      </cc:Work>
    </rdf:RDF>
  </metadata>
  <g
     inkscape:label="bottle"
     inkscape:groupmode="layer"
     id="layer1"
     style="display:inline"
     transform="translate(-49.082171,-26.659954)">
    <g
       id="g401"
       transform="rotate(-15,98.084824,91.097465)">
      <path
         d="M 98.045101,52.260436 A 50.270828,58.208324 0 0 1 144.42714,87.910701 L 98.084824,110.46874 Z"
         sodipodi:end="5.885224"
         sodipodi:start="4.7115988"
         sodipodi:ry="58.208324"
         sodipodi:rx="50.270828"
         sodipodi:cy="110.46874"
         sodipodi:cx="98.084824"
         sodipodi:type="arc"
         id="path12"
         style="fill:#ffe680;fill-opacity:1;stroke-width:0.26458332" />
      <path
         d="m 143.97941,86.639967 a 54.673805,43.845238 0 0 1 2.05828,44.890223 54.673805,43.845238 0 0 1 -48.275553,22.78303 l 0.322687,-43.84448 z"
         sodipodi:end="1.5766984"
         sodipodi:start="5.7086144"
         sodipodi:ry="43.845238"
         sodipodi:rx="54.673805"
         sodipodi:cy="110.46874"
         sodipodi:cx="98.084824"
         sodipodi:type="arc"
         id="path20"
         style="fill:#ffe680;fill-opacity:1;stroke-width:0.28883347" />
      <rect
         transform="scale(-1,1)"
         y="37.42485"
         x="-108.47916"
         height="17.4814"
         width="10.394343"
         id="rect22"
         style="fill:#ffe680;fill-opacity:1;stroke-width:0.1460917" />
      <path
         sodipodi:nodetypes="ccccc"
         inkscape:connector-curvature="0"
         id="rect309"
         d="m 98.0869,27.880949 h 13.0381 l -5.00299,14.741072 -8.793138,0.188988 z"
         style="fill:#c87137;fill-opacity:1;stroke-width:0.23697536" />
      <path
         transform="scale(-1,1)"
         d="m -98.124547,52.260436 a 50.270828,58.208324 0 0 1 46.382036,35.650265 l -46.342313,22.558039 z"
         sodipodi:end="5.885224"
         sodipodi:start="4.7115988"
         sodipodi:ry="58.208324"
         sodipodi:rx="50.270828"
         sodipodi:cy="110.46874"
         sodipodi:cx="-98.084824"
         sodipodi:type="arc"
         id="path12-3"
         style="fill:#ffe680;fill-opacity:1;stroke-width:0.26458332" />
      <path
         transform="scale(-1,1)"
         d="m -52.190233,86.639967 a 54.673805,43.845238 0 0 1 2.058277,44.890223 54.673805,43.845238 0 0 1 -48.275555,22.78303 l 0.322687,-43.84448 z"
         sodipodi:end="1.5766984"
         sodipodi:start="5.7086144"
         sodipodi:ry="43.845238"
         sodipodi:rx="54.673805"
         sodipodi:cy="110.46874"
         sodipodi:cx="-98.084824"
         sodipodi:type="arc"
         id="path20-6"
         style="fill:#ffe680;fill-opacity:1;stroke-width:0.28883347" />
      <rect
         y="37.424854"
         x="87.690483"
         height="17.4814"
         width="10.394344"
         id="rect22-7"
         style="fill:#ffe680;fill-opacity:1;stroke-width:0.14609171" />
      <path
         sodipodi:nodetypes="ccccc"
         inkscape:connector-curvature="0"
         id="rect309-3"
         d="M 98.082749,27.880954 H 85.044651 l 5.002993,14.741072 8.793133,0.188988 z"
         style="fill:#c87137;fill-opacity:1;stroke-width:0.23697536" />
      <rect
         ry="1.5119054"
         y="37.42485"
         x="95.679398"
         height="5.3861599"
         width="15.256615"
         id="rect303"
         style="fill:#ffe680;fill-opacity:1;stroke-width:0.28828359" />
      <rect
         transform="scale(-1,1)"
         ry="1.5119054"
         y="37.424854"
         x="-100.82433"
         height="5.3861599"
         width="15.590701"
         id="rect303-5"
         style="fill:#ffe680;fill-opacity:1;stroke-width:0.29142287" />
    </g>
  </g>
  <g
     inkscape:groupmode="layer"
     id="layer2"
     inkscape:label="Cap M"
     style="display:none"
     transform="translate(-49.082171,-26.659954)">
    <path
       style="display:inline;fill:#502d16;fill-opacity:1;stroke-width:0.26458332"
       id="path368"
       d="m 72.182702,115.72902 c -0.210561,0.89436 -0.242697,1.81408 -0.247437,2.72869 0.05217,0.64121 0.1013,1.33172 0.50084,1.86143 0.05004,0.0311 0.09376,0.076 0.150099,0.0933 0.422623,0.12937 1.277725,-0.62924 1.556261,-0.84642 -0.224024,0.26044 1.63758,-1.51906 1.216488,-1.15217 -0.385012,0.33545 -0.613798,0.95019 -1.114351,1.05123 -0.432165,0.0872 0.582151,-0.6624 0.864693,-1.00084 0.860234,-1.03043 1.125883,-1.40392 1.961633,-2.49747 2.768864,-3.69747 5.169363,-7.64798 7.543446,-11.60452 1.877252,-3.18569 3.699186,-6.406262 5.374417,-9.703545 0.986135,-1.940967 1.360928,-2.774082 2.281335,-4.728677 1.215722,-2.709915 2.338375,-5.471302 3.185981,-8.320979 0.445579,-1.498046 0.511186,-1.89797 0.847796,-3.386255 0.440068,-2.139324 0.730423,-4.312113 0.781286,-6.496571 0.01275,-0.469193 -0.02405,-0.935954 -0.08258,-1.399574 -0.0014,-0.0131 0.0039,0.04529 0.01401,0.03685 0.687826,-0.574034 1.359544,-1.167113 2.039311,-1.750669 -0.0393,0.06854 -0.08796,0.132524 -0.117973,0.205614 -0.09169,0.223212 -0.19451,0.668064 -0.239987,0.878915 -0.167636,0.777324 -0.271236,1.565754 -0.384235,2.352252 -0.344052,2.642082 -0.52968,5.299991 -0.703142,7.957516 -0.245181,3.497173 -0.345516,7.002007 -0.43569,10.505921 -0.105095,3.1985 -0.01771,6.39523 0.169974,9.588342 0.177983,1.58811 0.156323,3.28888 0.797946,4.78659 0.07467,0.17429 0.179467,0.33406 0.269197,0.50109 0.195188,0.22666 0.316667,0.43978 0.617855,0.53507 0.667094,0.21105 1.372815,-0.44197 1.835195,-0.79969 0.19918,-0.199 0.80934,-0.7825 0.59755,-0.59697 -0.41871,0.36677 -0.71457,0.90594 -1.21899,1.14133 -0.349586,0.16314 0.48688,-0.59881 0.71812,-0.90761 0.87126,-1.16341 1.61791,-2.39688 2.36334,-3.64246 1.84317,-3.151877 3.18512,-6.549385 4.41918,-9.97451 1.07474,-3.163714 1.97426,-6.385402 2.68165,-9.650461 0.39413,-1.966342 0.75903,-3.93841 1.10847,-5.913146 0.0889,-0.494997 0.18908,-0.988651 0.31436,-1.47588 0.001,-0.0067 0.11012,-0.410821 0.13144,-0.429089 0.71233,-0.610059 1.46143,-1.175817 2.19214,-1.763724 0.0308,0.06216 0.0711,0.12048 0.0926,0.186461 0.12429,0.380003 0.11004,0.833052 0.13422,1.224567 0.0911,1.474217 -0.0152,-0.17597 0.093,1.481176 0.15241,2.419336 0.46383,4.82279 0.81805,7.219477 0.38164,2.645749 1.02286,5.241848 1.77581,7.803574 0.51485,1.65482 1.17116,3.274222 2.08701,4.748777 0.49598,0.69344 1.12898,1.403231 2.04209,1.460751 0.1548,0.0098 0.30974,-0.01663 0.46462,-0.0249 0.66774,-0.125396 1.28737,-0.45292 1.80286,-0.89412 0.13012,-0.111375 0.48876,-0.48012 0.367,-0.359652 -0.52886,0.523247 -1.05886,1.045332 -1.58829,1.567996 0.47106,-0.521622 0.84075,-1.124279 1.13059,-1.762566 0.0725,-0.217839 0.19828,-0.422649 0.25903,-0.643973 0.008,-0.03834 0.0104,-0.07743 0.0141,-0.116239 0,0 2.12025,-1.877264 2.12025,-1.877264 v 0 c 0.0187,0.05824 0.0286,0.118262 0.0312,0.179466 0.008,0.263323 -0.12349,0.484076 -0.22007,0.725964 -0.27742,0.669492 -0.64889,1.298738 -1.10235,1.864801 -1.00294,1.007904 -2.45279,2.923439 -4.09175,3.337761 -0.16903,0.04322 -0.34459,0.05496 -0.51688,0.08249 -0.17073,-0.0054 -0.34308,0.008 -0.51218,-0.01625 -0.96886,-0.138592 -1.64963,-0.871355 -2.18277,-1.631706 -0.92373,-1.503824 -1.55562,-3.169337 -2.08868,-4.846789 -0.74755,-2.580085 -1.34469,-5.204684 -1.76851,-7.857856 -0.36648,-2.383501 -0.69865,-4.772519 -0.89741,-7.176852 -0.0755,-0.897037 -0.11555,-1.805737 -0.26617,-2.69291 0.67681,-0.647632 1.35363,-1.295264 2.03045,-1.942898 -0.0315,0.04642 -0.0702,0.08873 -0.0945,0.139303 -0.26099,0.544031 -0.30044,1.18008 -0.46101,1.753128 -0.38136,1.997176 -0.77145,3.992672 -1.18113,5.984244 -0.7237,3.285505 -1.63859,6.526483 -2.70931,9.716061 -1.22425,3.422854 -2.54575,6.822182 -4.3549,9.986701 -0.72539,1.239767 -1.45294,2.467567 -2.29558,3.632807 -0.22309,0.30852 -0.435,0.6277 -0.69144,0.90911 -0.82507,0.9054 -1.68964,1.77415 -2.549101,2.64698 -0.203543,0.20671 -0.426043,0.39386 -0.639065,0.59078 -0.756683,0.51903 -1.651371,1.14306 -2.492947,0.3583 -0.123881,-0.11552 -0.214526,-0.26219 -0.321788,-0.39328 -0.0947,-0.18178 -0.204849,-0.3563 -0.284117,-0.54531 -0.644875,-1.53772 -0.615031,-3.27517 -0.778773,-4.90288 -0.164056,-3.212353 -0.243365,-6.427207 -0.138007,-9.643523 0.09235,-3.498559 0.178939,-6.998378 0.404156,-10.491503 0.156205,-2.642015 0.323484,-5.283867 0.621952,-7.914481 0.146816,-1.165512 0.283333,-2.334958 0.566139,-3.477302 0.731144,-0.651919 1.428108,-1.344312 2.193423,-1.955754 0.08528,-0.0681 0.133865,0.184701 0.145435,0.293175 0.04667,0.436917 0.02021,0.880531 0.03072,1.318388 -0.08448,2.228354 -0.395144,4.442678 -0.854087,6.624262 -0.349668,1.522594 -0.411395,1.900488 -0.871165,3.433862 -0.862033,2.874979 -1.999256,5.661102 -3.22847,8.396115 -0.912938,1.933888 -1.320148,2.831669 -2.294977,4.751867 -1.673244,3.295921 -3.488287,6.517838 -5.355611,9.706954 -2.340249,3.92871 -4.700327,7.85474 -7.413952,11.54132 -0.875721,1.16607 -1.751729,2.40537 -2.75048,3.47209 -0.861708,0.92035 -1.749745,1.81574 -2.632996,2.71544 -0.607502,0.61881 -0.657787,0.64116 -1.273465,1.16923 -0.609016,0.44251 -1.34401,1.09637 -2.067245,0.50484 -0.440137,-0.58275 -0.534167,-1.30346 -0.599158,-2.01563 -0.0037,-0.92395 0.03704,-1.84626 0.179116,-2.76051 0,0 2.174577,-1.76688 2.174577,-1.76688 z"
       inkscape:connector-curvature="0" />
  </g>
  <g
     inkscape:groupmode="layer"
     id="layer3"
     inkscape:label="Low m"
     style="display:inline"
     transform="translate(-49.082171,-26.659954)">
    <path
       style="display:inline;fill:#502d16;fill-opacity:1;stroke-width:0.46713972"
       id="path354"
       d="m 52.871802,116.74711 c 0.574697,-2.19176 1.11341,-4.40309 1.652276,-6.61413 0.849955,-3.32306 1.797341,-6.59029 2.750803,-9.85207 0.915521,-3.000676 1.802521,-6.022351 2.791366,-8.973628 0.6467,-1.868157 1.373544,-3.687493 2.322154,-5.263888 0.59569,-0.692092 2.633877,-5.607631 4.506412,-4.723282 0.426999,0.201659 0.599339,0.450324 0.963679,0.833156 1.542934,1.992012 2.560486,4.673488 3.627935,7.206244 1.747183,4.217532 3.151718,8.697912 4.468263,13.227538 1.488022,5.14254 2.569829,10.49507 3.480794,15.90793 0.730799,4.62578 1.307475,9.295 1.641873,14.01702 0.163959,2.35761 0.318585,4.73862 0.15432,7.10483 -0.253008,2.25117 -2.064566,6.48171 -3.360491,4.54376 -0.346604,-0.51832 -0.483123,-1.38064 -0.637816,-2.03388 -0.622331,-3.18901 -0.745136,-6.5184 -0.794016,-9.81483 -0.02721,-5.07152 0.464285,-10.10416 0.970881,-15.10863 0.53797,-5.49514 1.372025,-10.91545 2.257844,-16.30958 0.698618,-4.447778 1.656003,-8.78979 2.720687,-13.075487 0.789404,-3.115092 1.777026,-6.106895 2.99673,-8.909162 1.247417,-2.656779 2.859916,-4.723108 4.464624,-6.98169 0.53762,-0.756714 1.188068,-1.118227 1.878741,-1.453752 1.660516,-0.465134 3.075235,0.664827 4.40332,1.983031 1.801351,2.033213 3.113351,4.719894 4.251769,7.559681 1.41877,3.648819 2.30666,7.652458 3.15041,11.642465 0.82506,4.21187 1.44776,8.502164 1.92706,12.824744 0.3432,3.17858 0.64524,6.37665 0.73491,9.59439 10e-4,0.83953 0.0372,1.6793 9.8e-4,2.51841 -0.003,0.06 -0.0464,0.73062 -0.0651,0.75369 -1.04289,1.29062 -2.14005,2.48475 -3.21007,3.72715 -0.55242,-2.16922 -0.39775,-4.60711 -0.33131,-6.87608 0.12274,-4.5037 0.74009,-8.91902 1.39637,-13.30808 0.74093,-4.763438 1.59922,-9.486538 2.48912,-14.194671 0.66115,-3.623612 1.46508,-7.188826 2.33115,-10.717949 0.51943,-2.190527 1.25325,-4.243961 2.21168,-6.088981 0.76145,-0.8461 2.61819,-5.336643 4.52811,-5.272266 0.3971,0.01343 0.54065,0.148768 0.90642,0.354867 1.16744,0.844842 1.84212,2.387484 2.47176,3.979554 0.84876,2.410256 1.46123,4.978139 2.17173,7.478147 0.99345,3.565848 2.16465,6.999766 3.50397,10.312729 1.22191,2.907863 2.56746,5.742079 4.26684,8.105817 0.30737,0.427495 0.6382,0.817442 0.95728,1.226162 1.8349,2.218935 4.02972,3.447275 6.31044,4.289381 1.99216,0.65885 4.03163,0.79565 6.06591,0.77388 1.8658,-0.1377 3.72938,-0.36536 5.57924,-0.74853 1.60488,-0.428696 3.14728,-1.139076 4.60317,-2.209116 0.37636,-0.32218 0.85246,-0.70721 1.20229,-1.09518 0.17353,-0.19246 0.64637,-0.852859 0.4928,-0.627138 -2.87985,4.232554 -3.07736,4.633964 -2.05477,2.807918 0,0 3.2527,-3.546928 3.2527,-3.546928 v 0 c -1.42164,2.884148 -3.20114,5.487244 -5.37312,7.108924 -1.49186,1.00518 -3.06276,1.69072 -4.68751,2.06895 -1.86224,0.36059 -3.73706,0.58563 -5.61437,0.68818 -2.05831,-0.005 -4.12181,-0.18853 -6.1306,-0.89409 -2.32695,-0.90955 -4.5606,-2.21636 -6.42908,-4.503 -0.32393,-0.422686 -0.65914,-0.827616 -0.97177,-1.268066 -1.71117,-2.410904 -3.08148,-5.267609 -4.32366,-8.212521 -1.35679,-3.318754 -2.55202,-6.755864 -3.57731,-10.321769 -0.71707,-2.461857 -1.34427,-4.985183 -2.17355,-7.373217 -0.58252,-1.462085 -1.18544,-2.925022 -2.29169,-3.63824 -0.32962,-0.134858 -0.40989,-0.22074 -0.7542,-0.157216 -1.41869,0.26178 -3.56178,4.666966 1.32625,-2.862923 -1.02917,1.772634 -1.80001,3.81801 -2.34744,5.999802 -0.89933,3.531073 -1.72125,7.109621 -2.40263,10.743964 -0.9091,4.703082 -1.77128,9.427868 -2.52135,14.19087 -0.64913,4.339116 -1.27314,8.700856 -1.37857,13.156226 -0.0574,2.14097 -0.15285,4.34877 0.24149,6.4387 -6.561567,9.29276 -3.00816,5.51995 -2.78946,3.54531 0.0927,-0.83622 0.035,-1.68275 0.0634,-2.52449 -0.0177,-3.22331 -0.31494,-6.4295 -0.64065,-9.61307 -0.4469,-4.31164 -1.05889,-8.585476 -1.87393,-12.782611 -0.83667,-3.942805 -1.7099,-7.902682 -3.118478,-11.505278 -1.107291,-2.762135 -2.389655,-5.373757 -4.157589,-7.323673 -1.261754,-1.200456 -2.598242,-2.226848 -4.138717,-1.578849 -0.563464,0.34738 -0.674992,0.361792 -1.180922,0.900067 -0.19496,0.207441 -0.719096,0.936481 -0.554743,0.678603 4.343851,-6.816658 1.927402,-2.9134 1.097685,-1.303935 -1.274364,2.757608 -2.273558,5.751207 -3.094402,8.853075 -1.096341,4.282136 -2.08346,8.625308 -2.797519,13.081145 -0.901981,5.381566 -1.755204,10.791036 -2.289207,16.280766 -0.504399,4.95882 -0.989282,9.94742 -0.962837,14.97287 0.0471,3.21361 0.172865,6.46223 0.795404,9.56508 0.807304,3.26629 0.957658,0.95476 -2.267254,5.66985 -0.06852,0.1001 0.0895,-0.25105 0.13428,-0.37663 0.283256,-2.35268 0.139535,-4.75635 0.0044,-7.12178 -0.288349,-4.72693 -0.820352,-9.40357 -1.546737,-14.03048 -0.893687,-5.38948 -1.956273,-10.72024 -3.442612,-15.83366 -1.313366,-4.49 -2.713169,-8.933416 -4.479136,-13.090813 -1.055396,-2.438264 -2.061114,-5.041603 -3.590486,-6.921985 -0.308041,-0.293956 -0.461706,-0.513749 -0.825095,-0.607844 -1.396819,-0.361675 -3.871852,4.962122 1.460048,-3.280683 -1.027727,1.492587 -1.771782,3.322943 -2.44567,5.185302 -1.028535,2.935078 -1.900039,5.980746 -2.835678,8.980117 -0.952391,3.24225 -1.892991,6.492416 -2.74346,9.795406 -0.5216,2.17558 -1.047003,4.3485 -1.563937,6.52594 0,0 -3.212453,3.72411 -3.212453,3.72411 z"
       inkscape:connector-curvature="0" />
  </g>
</svg>
