<?xml version="1.0" encoding="UTF-8" standalone="no"?>
<!-- Created with Inkscape (http://www.inkscape.org/) -->

<svg
   xmlns:dc="http://purl.org/dc/elements/1.1/"
   xmlns:cc="http://creativecommons.org/ns#"
   xmlns:rdf="http://www.w3.org/1999/02/22-rdf-syntax-ns#"
   xmlns:svg="http://www.w3.org/2000/svg"
   xmlns="http://www.w3.org/2000/svg"
   xmlns:sodipodi="http://sodipodi.sourceforge.net/DTD/sodipodi-0.dtd"
   xmlns:inkscape="http://www.inkscape.org/namespaces/inkscape"
   width="385"
   height="724"
   id="svg2"
   version="1.1"
   inkscape:version="0.92.3 (2405546, 2018-03-11)"
   sodipodi:docname="battle3Infantry7TanksVs4Tanks.svg"
   inkscape:export-filename="battle3Infantry7TanksVs4Tanks.png"
   inkscape:export-xdpi="90"
   inkscape:export-ydpi="90">
  <title
     id="title3011">Aid for Axis and Allies</title>
  <defs
     id="defs4" />
  <sodipodi:namedview
     id="base"
     pagecolor="#ffffff"
     bordercolor="#666666"
     borderopacity="1.0"
     inkscape:pageopacity="1"
     inkscape:pageshadow="2"
     inkscape:zoom="1.0078125"
     inkscape:cx="194.29706"
     inkscape:cy="342.733"
     inkscape:document-units="px"
     inkscape:current-layer="layer1"
     showgrid="true"
     inkscape:window-width="1920"
     inkscape:window-height="1009"
     inkscape:window-x="0"
     inkscape:window-y="34"
     inkscape:window-maximized="1"
     inkscape:snap-global="true"
     showguides="true"
     inkscape:guide-bbox="true"
     width="1024px"
     inkscape:snap-bbox="true"
     inkscape:bbox-paths="false"
     inkscape:snap-grids="false"
     inkscape:snap-intersection-paths="true"
     fit-margin-top="20"
     fit-margin-right="20"
     fit-margin-bottom="20"
     fit-margin-left="20">
    <inkscape:grid
       type="xygrid"
       id="grid2985"
       empspacing="10"
       visible="true"
       enabled="true"
       snapvisiblegridlinesonly="true"
       spacingx="1"
       spacingy="1"
       originx="-21.702937"
       originy="-41.266996"
       dotted="true" />
  </sodipodi:namedview>
  <metadata
     id="metadata7">
    <rdf:RDF>
      <cc:Work
         rdf:about="">
        <dc:format>image/svg+xml</dc:format>
        <dc:type
           rdf:resource="http://purl.org/dc/dcmitype/StillImage" />
        <dc:title>Aid for Axis and Allies</dc:title>
        <dc:creator>
          <cc:Agent>
            <dc:title>Geoffrey De Smet</dc:title>
          </cc:Agent>
        </dc:creator>
      </cc:Work>
    </rdf:RDF>
  </metadata>
  <g
     inkscape:label="Base"
     inkscape:groupmode="layer"
     id="layer1"
     transform="translate(-21.702937,-287.09518)">
    <g
       id="g1319"
       transform="translate(-160.79023,-213.42055)">
      <rect
         inkscape:export-ydpi="90"
         inkscape:export-xdpi="90"
         inkscape:export-filename="../../../src/main/res/drawable-xhdpi/infantry_icon.png"
         ry="5"
         rx="5"
         y="750.53271"
         x="247.87598"
         height="48"
         width="48"
         id="rect3017"
         style="fill:#ffffff;fill-opacity:1;stroke:#000000;stroke-opacity:1" />
      <path
         sodipodi:nodetypes="sssssssssssssssscsssssssssssssss"
         inkscape:connector-curvature="0"
         id="path2994"
         d="m 254.38159,788.3185 c -0.73027,-0.8132 -1.76251,-2.48927 -1.52677,-3.05353 0.72281,-1.73005 4.49519,-2.33048 6.10707,-4.24101 0.61988,-0.73474 1.42065,-1.56523 1.35712,-2.54462 -0.0346,-0.53324 -1.16759,-4.18723 -0.33928,-6.61597 0.22459,-0.65854 -0.4085,-1.29812 -1.35712,-2.20534 -0.5084,-0.48621 3.50115,-3.84882 3.73209,-5.93742 0.10117,-0.91494 2.09095,-1.1863 2.71425,-0.50892 1.29273,1.40488 1.27,1.03109 1.6311,-0.52409 0.0425,-0.18315 -0.66133,-0.38663 -0.23156,-0.83304 1.16881,-1.21407 3.75089,-2.63493 4.87716,1.78123 0.0895,0.35085 -0.4875,-0.18676 -0.55133,0.16964 -0.13754,0.76794 -0.58066,1.84426 -0.63615,2.45979 -0.0203,0.22527 -0.66477,-0.22577 -0.67856,0 -0.23996,3.92695 3.46883,7.69335 6.64166,6.95527 0.85697,-0.19936 4.09985,-0.73891 8.19411,-0.86104 1.61542,-0.0482 -2.13786,1.54303 6.61599,0.59374 -1.4814,1.77409 -9.79477,1.63186 -12.43513,2.55745 0,0 -0.36815,-0.84189 -0.84821,-0.76339 -2.18506,0.3573 -7.50377,0.0138 -8.16842,0.50892 -0.79654,0.59341 2.27264,3.47338 2.29015,5.59814 0.0118,1.43224 -0.68678,3.79562 -0.93303,5.59814 -0.1342,0.98235 2.27896,2.1293 2.37497,3.22318 0.0156,0.17813 0.009,0.50316 -0.16964,0.50892 -1.29728,0.0418 -4.86945,-0.045 -4.74994,-1.01785 0.13565,-1.10401 0.72542,-2.86006 0.50892,-4.24101 -0.24663,-1.57316 0.47025,-3.4942 -0.50892,-4.74993 -0.70406,-0.90295 -2.13629,-1.54762 -3.22317,-1.18749 -1.47392,0.48836 -1.41966,2.83149 -2.54461,3.90173 -1.70745,1.62442 -4.67174,1.69324 -6.10706,3.56245 -0.71562,0.93196 0.43933,2.08132 0.16964,2.37497 -0.51031,0.55565 -1.70125,0.0524 -2.20533,-0.50892 z"
         style="fill:#4e9a06;fill-opacity:1;stroke:none" />
    </g>
    <g
       id="g1357"
       transform="translate(-160.79023,-263.42055)">
      <rect
         inkscape:export-ydpi="90"
         inkscape:export-xdpi="90"
         inkscape:export-filename="../../../src/main/res/drawable-xhdpi/infantry_icon.png"
         ry="5"
         rx="5"
         y="750.53271"
         x="247.87598"
         height="48"
         width="48"
         id="rect1353"
         style="fill:#ffffff;fill-opacity:1;stroke:#000000;stroke-opacity:1" />
      <path
         sodipodi:nodetypes="sssssssssssssssscsssssssssssssss"
         inkscape:connector-curvature="0"
         id="path1355"
         d="m 254.38159,788.3185 c -0.73027,-0.8132 -1.76251,-2.48927 -1.52677,-3.05353 0.72281,-1.73005 4.49519,-2.33048 6.10707,-4.24101 0.61988,-0.73474 1.42065,-1.56523 1.35712,-2.54462 -0.0346,-0.53324 -1.16759,-4.18723 -0.33928,-6.61597 0.22459,-0.65854 -0.4085,-1.29812 -1.35712,-2.20534 -0.5084,-0.48621 3.50115,-3.84882 3.73209,-5.93742 0.10117,-0.91494 2.09095,-1.1863 2.71425,-0.50892 1.29273,1.40488 1.27,1.03109 1.6311,-0.52409 0.0425,-0.18315 -0.66133,-0.38663 -0.23156,-0.83304 1.16881,-1.21407 3.75089,-2.63493 4.87716,1.78123 0.0895,0.35085 -0.4875,-0.18676 -0.55133,0.16964 -0.13754,0.76794 -0.58066,1.84426 -0.63615,2.45979 -0.0203,0.22527 -0.66477,-0.22577 -0.67856,0 -0.23996,3.92695 3.46883,7.69335 6.64166,6.95527 0.85697,-0.19936 4.09985,-0.73891 8.19411,-0.86104 1.61542,-0.0482 -2.13786,1.54303 6.61599,0.59374 -1.4814,1.77409 -9.79477,1.63186 -12.43513,2.55745 0,0 -0.36815,-0.84189 -0.84821,-0.76339 -2.18506,0.3573 -7.50377,0.0138 -8.16842,0.50892 -0.79654,0.59341 2.27264,3.47338 2.29015,5.59814 0.0118,1.43224 -0.68678,3.79562 -0.93303,5.59814 -0.1342,0.98235 2.27896,2.1293 2.37497,3.22318 0.0156,0.17813 0.009,0.50316 -0.16964,0.50892 -1.29728,0.0418 -4.86945,-0.045 -4.74994,-1.01785 0.13565,-1.10401 0.72542,-2.86006 0.50892,-4.24101 -0.24663,-1.57316 0.47025,-3.4942 -0.50892,-4.74993 -0.70406,-0.90295 -2.13629,-1.54762 -3.22317,-1.18749 -1.47392,0.48836 -1.41966,2.83149 -2.54461,3.90173 -1.70745,1.62442 -4.67174,1.69324 -6.10706,3.56245 -0.71562,0.93196 0.43933,2.08132 0.16964,2.37497 -0.51031,0.55565 -1.70125,0.0524 -2.20533,-0.50892 z"
         style="fill:#4e9a06;fill-opacity:1;stroke:none" />
    </g>
    <g
       transform="translate(-160.79023,-313.42055)"
       id="g1351">
      <rect
         style="fill:#ffffff;fill-opacity:1;stroke:#000000;stroke-opacity:1"
         id="rect1347"
         width="48"
         height="48"
         x="247.87598"
         y="750.53271"
         rx="5"
         ry="5"
         inkscape:export-filename="../../../src/main/res/drawable-xhdpi/infantry_icon.png"
         inkscape:export-xdpi="90"
         inkscape:export-ydpi="90" />
      <path
         style="fill:#4e9a06;fill-opacity:1;stroke:none"
         d="m 254.38159,788.3185 c -0.73027,-0.8132 -1.76251,-2.48927 -1.52677,-3.05353 0.72281,-1.73005 4.49519,-2.33048 6.10707,-4.24101 0.61988,-0.73474 1.42065,-1.56523 1.35712,-2.54462 -0.0346,-0.53324 -1.16759,-4.18723 -0.33928,-6.61597 0.22459,-0.65854 -0.4085,-1.29812 -1.35712,-2.20534 -0.5084,-0.48621 3.50115,-3.84882 3.73209,-5.93742 0.10117,-0.91494 2.09095,-1.1863 2.71425,-0.50892 1.29273,1.40488 1.27,1.03109 1.6311,-0.52409 0.0425,-0.18315 -0.66133,-0.38663 -0.23156,-0.83304 1.16881,-1.21407 3.75089,-2.63493 4.87716,1.78123 0.0895,0.35085 -0.4875,-0.18676 -0.55133,0.16964 -0.13754,0.76794 -0.58066,1.84426 -0.63615,2.45979 -0.0203,0.22527 -0.66477,-0.22577 -0.67856,0 -0.23996,3.92695 3.46883,7.69335 6.64166,6.95527 0.85697,-0.19936 4.09985,-0.73891 8.19411,-0.86104 1.61542,-0.0482 -2.13786,1.54303 6.61599,0.59374 -1.4814,1.77409 -9.79477,1.63186 -12.43513,2.55745 0,0 -0.36815,-0.84189 -0.84821,-0.76339 -2.18506,0.3573 -7.50377,0.0138 -8.16842,0.50892 -0.79654,0.59341 2.27264,3.47338 2.29015,5.59814 0.0118,1.43224 -0.68678,3.79562 -0.93303,5.59814 -0.1342,0.98235 2.27896,2.1293 2.37497,3.22318 0.0156,0.17813 0.009,0.50316 -0.16964,0.50892 -1.29728,0.0418 -4.86945,-0.045 -4.74994,-1.01785 0.13565,-1.10401 0.72542,-2.86006 0.50892,-4.24101 -0.24663,-1.57316 0.47025,-3.4942 -0.50892,-4.74993 -0.70406,-0.90295 -2.13629,-1.54762 -3.22317,-1.18749 -1.47392,0.48836 -1.41966,2.83149 -2.54461,3.90173 -1.70745,1.62442 -4.67174,1.69324 -6.10706,3.56245 -0.71562,0.93196 0.43933,2.08132 0.16964,2.37497 -0.51031,0.55565 -1.70125,0.0524 -2.20533,-0.50892 z"
         id="path1349"
         inkscape:connector-curvature="0"
         sodipodi:nodetypes="sssssssssssssssscsssssssssssssss" />
    </g>
    <g
       transform="translate(-56.91425,26.749008)"
       id="g1003">
      <rect
         ry="5"
         rx="5"
         y="860.36218"
         x="144"
         height="48"
         width="48"
         id="rect999"
         style="fill:#ffffff;fill-opacity:1;stroke:#000000;stroke-opacity:1"
         inkscape:export-filename="../../../src/main/res/drawable-xhdpi/tank_icon.png"
         inkscape:export-xdpi="90"
         inkscape:export-ydpi="90" />
      <path
         style="fill:#4e9a06;fill-opacity:1;stroke:none"
         d="m 187.75,885.52218 h -9.5 c 0,-5 -16.5,-5 -16.5,-0.5 v 2.5 c -3,0 -14,2 -14,3.5 v 5 c 0,2 3.5,4 7,4 h 28 c 3,0 5.5,-2.5 5.5,-4.5 v -3 c 0,-1.5 -7.5,-3 -10,-3.5 v -1.5 h 9.5 z"
         id="path1001"
         inkscape:connector-curvature="0"
         sodipodi:nodetypes="cccccccccccccc" />
    </g>
    <flowRoot
       transform="translate(-83.313341,810.04247)"
       style="font-style:normal;font-weight:normal;font-size:16px;line-height:1.25;font-family:sans-serif;text-align:start;letter-spacing:0px;word-spacing:0px;text-anchor:start;vector-effect:none;fill:#4e9a06;fill-opacity:1;stroke:none;stroke-width:0.99999994px;stroke-linecap:butt;stroke-linejoin:miter;stroke-miterlimit:4;stroke-dasharray:none;stroke-dashoffset:0;stroke-opacity:1"
       id="flowRoot1368"
       xml:space="preserve"><flowRegion
         style="font-size:16px;text-align:start;text-anchor:start;vector-effect:none;fill:#4e9a06;fill-opacity:1;stroke:none;stroke-width:0.99999994px;stroke-linecap:butt;stroke-linejoin:miter;stroke-miterlimit:4;stroke-dasharray:none;stroke-dashoffset:0;stroke-opacity:1"
         id="flowRegion1362"><rect
           style="font-size:16px;text-align:start;text-anchor:start;vector-effect:none;fill:#4e9a06;fill-opacity:1;stroke:none;stroke-width:0.99999994px;stroke-linecap:butt;stroke-linejoin:miter;stroke-miterlimit:4;stroke-dasharray:none;stroke-dashoffset:0;stroke-opacity:1"
           y="143.5681"
           x="129.94354"
           height="85.088493"
           width="253.3698"
           id="rect1360" /></flowRegion><flowPara
         id="flowPara1366"
         style="font-size:16px;text-align:start;text-anchor:start">24/6 total</flowPara><flowPara
         style="font-size:16px;text-align:start;text-anchor:start"
         id="flowPara1439">average 4 hits</flowPara></flowRoot>    <flowRoot
       xml:space="preserve"
       id="flowRoot1569"
       style="font-style:normal;font-weight:normal;font-size:16px;line-height:1.25;font-family:sans-serif;text-align:end;letter-spacing:0px;word-spacing:0px;text-anchor:end;fill:#4e9a06;fill-opacity:1;stroke:none"
       transform="translate(-119.94355,758.7056)"><flowRegion
         id="flowRegion1561"
         style="font-size:16px;text-align:end;text-anchor:end;fill:#4e9a06"><rect
           id="rect1559"
           width="70.000008"
           height="20"
           x="129.94354"
           y="143.5681"
           style="font-size:16px;text-align:end;text-anchor:end;fill:#4e9a06" /></flowRegion><flowPara
         id="flowPara1567"><flowSpan
           style="font-size:13.33333302px"
           id="flowSpan1565"><flowSpan
   id="flowSpan1563"
   style="font-size:16px">3</flowSpan>/6</flowSpan></flowPara></flowRoot>    <rect
       style="opacity:0.5;fill:#fcaf3e;fill-opacity:1;stroke:none;stroke-width:2.99999976;stroke-linecap:round;stroke-linejoin:round;stroke-miterlimit:4;stroke-dasharray:5.99999994, 5.99999994;stroke-dashoffset:0;stroke-opacity:1"
       id="rect1268"
       width="90"
       height="150"
       x="170"
       y="485.11209" />
    <g
       id="g995"
       transform="translate(-9.9999976,-128.24951)">
      <flowRoot
         style="font-style:normal;font-weight:normal;font-size:40px;line-height:1.25;font-family:sans-serif;letter-spacing:0px;word-spacing:0px;fill:#000000;fill-opacity:1;stroke:none"
         id="flowRoot983"
         xml:space="preserve"><flowRegion
           id="flowRegion985"><rect
             y="-18"
             x="-40"
             height="520"
             width="640"
             id="rect987" /></flowRegion><flowPara
           id="flowPara989" /></flowRoot>    </g>
    <flowRoot
       xml:space="preserve"
       id="flowRoot879"
       style="font-style:normal;font-weight:normal;font-size:32px;line-height:1.25;font-family:sans-serif;text-align:center;letter-spacing:0px;word-spacing:0px;text-anchor:middle;fill:#000000;fill-opacity:1;stroke:none"
       transform="translate(92.146197,288.79385)"><flowRegion
         id="flowRegion881"
         style="font-size:32px;text-align:center;text-anchor:middle"><rect
           id="rect883"
           width="380"
           height="50"
           x="-66.35659"
           y="31.317829"
           style="font-size:32px;text-align:center;text-anchor:middle" /></flowRegion><flowPara
         id="flowPara885">vs</flowPara></flowRoot>    <flowRoot
       xml:space="preserve"
       id="flowRoot917"
       style="font-style:normal;font-weight:normal;font-size:32px;line-height:1.25;font-family:sans-serif;text-align:center;letter-spacing:0px;word-spacing:0px;text-anchor:middle;fill:#8f5902;fill-opacity:1;stroke:none"
       transform="translate(292.14692,288.79385)"><flowRegion
         id="flowRegion913"
         style="font-size:32px;text-align:center;text-anchor:middle;fill:#8f5902"><rect
           id="rect911"
           width="190"
           height="40"
           x="-66.35659"
           y="31.317829"
           style="font-size:32px;text-align:center;text-anchor:middle;fill:#8f5902" /></flowRegion><flowPara
         id="flowPara915"
         style="font-weight:bold">4 tanks</flowPara></flowRoot>    <g
       transform="matrix(-1,0,0,1,488.78169,-273.25001)"
       id="g929">
      <rect
         ry="5"
         rx="5"
         y="860.36218"
         x="144"
         height="48"
         width="48"
         id="rect925"
         style="fill:#ffffff;fill-opacity:1;stroke:#000000;stroke-opacity:1"
         inkscape:export-filename="../../../src/main/res/drawable-xhdpi/tank_icon.png"
         inkscape:export-xdpi="90"
         inkscape:export-ydpi="90" />
      <path
         style="fill:#8f5902;fill-opacity:1;stroke:none"
         d="m 187.75,885.52218 h -9.5 c 0,-5 -16.5,-5 -16.5,-0.5 v 2.5 c -3,0 -14,2 -14,3.5 v 5 c 0,2 3.5,4 7,4 h 28 c 3,0 5.5,-2.5 5.5,-4.5 v -3 c 0,-1.5 -7.5,-3 -10,-3.5 v -1.5 h 9.5 z"
         id="path927"
         inkscape:connector-curvature="0"
         sodipodi:nodetypes="cccccccccccccc" />
    </g>
    <g
       id="g941"
       transform="matrix(-1,0,0,1,488.78169,-323.25002)">
      <rect
         inkscape:export-ydpi="90"
         inkscape:export-xdpi="90"
         inkscape:export-filename="../../../src/main/res/drawable-xhdpi/tank_icon.png"
         style="fill:#ffffff;fill-opacity:1;stroke:#000000;stroke-opacity:1"
         id="rect937"
         width="48"
         height="48"
         x="144"
         y="860.36218"
         rx="5"
         ry="5" />
      <path
         sodipodi:nodetypes="cccccccccccccc"
         inkscape:connector-curvature="0"
         id="path939"
         d="m 187.75,885.52218 h -9.5 c 0,-5 -16.5,-5 -16.5,-0.5 v 2.5 c -3,0 -14,2 -14,3.5 v 5 c 0,2 3.5,4 7,4 h 28 c 3,0 5.5,-2.5 5.5,-4.5 v -3 c 0,-1.5 -7.5,-3 -10,-3.5 v -1.5 h 9.5 z"
         style="fill:#8f5902;fill-opacity:1;stroke:none" />
    </g>
    <g
       id="g953"
       transform="matrix(-1,0,0,1,488.78169,-373.25002)">
      <rect
         inkscape:export-ydpi="90"
         inkscape:export-xdpi="90"
         inkscape:export-filename="../../../src/main/res/drawable-xhdpi/tank_icon.png"
         style="fill:#ffffff;fill-opacity:1;stroke:#000000;stroke-opacity:1"
         id="rect949"
         width="48"
         height="48"
         x="144"
         y="860.36218"
         rx="5"
         ry="5" />
      <path
         sodipodi:nodetypes="cccccccccccccc"
         inkscape:connector-curvature="0"
         id="path951"
         d="m 187.75,885.52218 h -9.5 c 0,-5 -16.5,-5 -16.5,-0.5 v 2.5 c -3,0 -14,2 -14,3.5 v 5 c 0,2 3.5,4 7,4 h 28 c 3,0 5.5,-2.5 5.5,-4.5 v -3 c 0,-1.5 -7.5,-3 -10,-3.5 v -1.5 h 9.5 z"
         style="fill:#8f5902;fill-opacity:1;stroke:none" />
    </g>
    <g
       transform="matrix(-1,0,0,1,488.78169,-423.25002)"
       id="g965">
      <rect
         ry="5"
         rx="5"
         y="860.36218"
         x="144"
         height="48"
         width="48"
         id="rect961"
         style="fill:#ffffff;fill-opacity:1;stroke:#000000;stroke-opacity:1"
         inkscape:export-filename="../../../src/main/res/drawable-xhdpi/tank_icon.png"
         inkscape:export-xdpi="90"
         inkscape:export-ydpi="90" />
      <path
         style="fill:#8f5902;fill-opacity:1;stroke:none"
         d="m 187.75,885.52218 h -9.5 c 0,-5 -16.5,-5 -16.5,-0.5 v 2.5 c -3,0 -14,2 -14,3.5 v 5 c 0,2 3.5,4 7,4 h 28 c 3,0 5.5,-2.5 5.5,-4.5 v -3 c 0,-1.5 -7.5,-3 -10,-3.5 v -1.5 h 9.5 z"
         id="path963"
         inkscape:connector-curvature="0"
         sodipodi:nodetypes="cccccccccccccc" />
    </g>
    <flowRoot
       xml:space="preserve"
       id="flowRoot973"
       style="font-style:normal;font-weight:normal;font-size:24px;line-height:1.25;font-family:sans-serif;text-align:center;letter-spacing:0px;word-spacing:0px;text-anchor:middle;fill:#4e9a06;fill-opacity:1;stroke:none"
       transform="translate(82.146297,363.79459)"><flowRegion
         id="flowRegion969"
         style="font-size:24px;text-align:center;text-anchor:middle;fill:#4e9a06"><rect
           id="rect967"
           width="190"
           height="40"
           x="-66.35659"
           y="31.317829"
           style="font-size:24px;text-align:center;text-anchor:middle;fill:#4e9a06" /></flowRegion><flowPara
         id="flowPara971">51 IPC</flowPara></flowRoot>    <flowRoot
       transform="translate(292.14692,363.79459)"
       style="font-style:normal;font-weight:normal;font-size:24px;line-height:1.25;font-family:sans-serif;text-align:center;letter-spacing:0px;word-spacing:0px;text-anchor:middle;fill:#8f5902;fill-opacity:1;stroke:none"
       id="flowRoot981"
       xml:space="preserve"><flowRegion
         style="font-size:24px;text-align:center;text-anchor:middle;fill:#8f5902"
         id="flowRegion977"><rect
           style="font-size:24px;text-align:center;text-anchor:middle;fill:#8f5902"
           y="31.317829"
           x="-66.35659"
           height="40"
           width="190"
           id="rect975" /></flowRegion><flowPara
         id="flowPara979">24 IPC</flowPara></flowRoot>    <path
       inkscape:connector-curvature="0"
       id="path1168"
       d="m 302.28169,537.11216 c -0.46195,0 -0.96481,0.0939 -1.47266,0.24609 -0.0873,0.0269 -0.17656,0.0486 -0.26172,0.0801 -0.10107,0.0346 -0.20202,0.0738 -0.30273,0.11328 -1.74641,0.77815 -2.96289,2.51875 -2.96289,4.56053 l 20,19 -20,19 c 0,0.46195 0.0939,0.96481 0.24609,1.47266 0.0269,0.0873 0.0486,0.17656 0.0801,0.26172 0.0346,0.10107 0.0738,0.20202 0.11328,0.30273 0.77817,1.74641 2.51877,2.96289 4.56055,2.96289 l 19,-20 19,20 c 0.46195,0 0.96481,-0.0939 1.47266,-0.24609 0.0873,-0.0269 0.17656,-0.0486 0.26172,-0.0801 0.10107,-0.0346 0.20202,-0.0738 0.30273,-0.11328 1.74639,-0.77815 2.96287,-2.51875 2.96287,-4.56053 l -20,-19 20,-19 c 0,-0.46195 -0.0939,-0.96481 -0.24609,-1.47266 -0.0269,-0.0873 -0.0486,-0.17656 -0.0801,-0.26172 -0.0346,-0.10107 -0.0738,-0.20202 -0.11328,-0.30273 -0.77817,-1.74641 -2.51877,-2.96289 -4.56055,-2.96289 l -19,20 z"
       style="opacity:0.5;fill:#ef2929;fill-opacity:1;stroke:none;stroke-opacity:1" />
    <path
       style="opacity:0.5;fill:#ef2929;fill-opacity:1;stroke:none;stroke-opacity:1"
       d="m 302.28169,587.11217 c -0.46195,0 -0.96481,0.0939 -1.47266,0.24609 -0.0873,0.0269 -0.17656,0.0486 -0.26172,0.0801 -0.10107,0.0346 -0.20202,0.0738 -0.30273,0.11328 -1.74641,0.77815 -2.96289,2.51875 -2.96289,4.56053 l 20,19 -20,19 c 0,0.46195 0.0939,0.96481 0.24609,1.47266 0.0269,0.0873 0.0486,0.17656 0.0801,0.26172 0.0346,0.10107 0.0738,0.20202 0.11328,0.30273 0.77817,1.74641 2.51877,2.96289 4.56055,2.96289 l 19,-20 19,20 c 0.46195,0 0.96481,-0.0939 1.47266,-0.24609 0.0873,-0.0269 0.17656,-0.0486 0.26172,-0.0801 0.10107,-0.0346 0.20202,-0.0738 0.30273,-0.11328 1.74639,-0.77815 2.96287,-2.51875 2.96287,-4.56053 l -20,-19 20,-19 c 0,-0.46195 -0.0939,-0.96481 -0.24609,-1.47266 -0.0269,-0.0873 -0.0486,-0.17656 -0.0801,-0.26172 -0.0346,-0.10107 -0.0738,-0.20202 -0.11328,-0.30273 -0.77817,-1.74641 -2.51877,-2.96289 -4.56055,-2.96289 l -19,20 z"
       id="path1170"
       inkscape:connector-curvature="0" />
    <path
       style="opacity:0.5;fill:#ef2929;fill-opacity:1;stroke:none;stroke-opacity:1"
       d="m 302.28169,487.11216 c -0.46195,0 -0.96481,0.0939 -1.47266,0.24609 -0.0873,0.0269 -0.17656,0.0486 -0.26172,0.0801 -0.10107,0.0346 -0.20202,0.0738 -0.30273,0.11328 -1.74641,0.77815 -2.96289,2.51875 -2.96289,4.56053 l 20,19 -20,19 c 0,0.46195 0.0939,0.96481 0.24609,1.47266 0.0269,0.0873 0.0486,0.17656 0.0801,0.26172 0.0346,0.10107 0.0738,0.20202 0.11328,0.30273 0.77817,1.74641 2.51877,2.96289 4.56055,2.96289 l 19,-20 19,20 c 0.46195,0 0.96481,-0.0939 1.47266,-0.24609 0.0873,-0.0269 0.17656,-0.0486 0.26172,-0.0801 0.10107,-0.0346 0.20202,-0.0738 0.30273,-0.11328 1.74639,-0.77815 2.96287,-2.51875 2.96287,-4.56053 l -20,-19 20,-19 c 0,-0.46195 -0.0939,-0.96481 -0.24609,-1.47266 -0.0269,-0.0873 -0.0486,-0.17656 -0.0801,-0.26172 -0.0346,-0.10107 -0.0738,-0.20202 -0.11328,-0.30273 -0.77817,-1.74641 -2.51877,-2.96289 -4.56055,-2.96289 l -19,20 z"
       id="path1172"
       inkscape:connector-curvature="0" />
    <path
       inkscape:connector-curvature="0"
       id="path1174"
       d="m 302.28169,437.11216 c -0.46195,0 -0.96481,0.0939 -1.47266,0.24609 -0.0873,0.0269 -0.17656,0.0486 -0.26172,0.0801 -0.10107,0.0346 -0.20202,0.0738 -0.30273,0.11328 -1.74641,0.77815 -2.96289,2.51875 -2.96289,4.56053 l 20,19 -20,19 c 0,0.46195 0.0939,0.96481 0.24609,1.47266 0.0269,0.0873 0.0486,0.17656 0.0801,0.26172 0.0346,0.10107 0.0738,0.20202 0.11328,0.30273 0.77817,1.74641 2.51877,2.96289 4.56055,2.96289 l 19,-20 19,20 c 0.46195,0 0.96481,-0.0939 1.47266,-0.24609 0.0873,-0.0269 0.17656,-0.0486 0.26172,-0.0801 0.10107,-0.0346 0.20202,-0.0738 0.30273,-0.11328 1.74639,-0.77815 2.96287,-2.51875 2.96287,-4.56053 l -20,-19 20,-19 c 0,-0.46195 -0.0939,-0.96481 -0.24609,-1.47266 -0.0269,-0.0873 -0.0486,-0.17656 -0.0801,-0.26172 -0.0346,-0.10107 -0.0738,-0.20202 -0.11328,-0.30273 -0.77817,-1.74641 -2.51877,-2.96289 -4.56055,-2.96289 l -19,20 z"
       style="opacity:0.5;fill:#ef2929;fill-opacity:1;stroke:none;stroke-opacity:1" />
    <path
       inkscape:connector-curvature="0"
       id="path1164"
       d="m 92.08575,487.11216 c -0.46195,0 -0.96481,0.0939 -1.47266,0.24609 -0.0873,0.0269 -0.17656,0.0486 -0.26172,0.0801 -0.10107,0.0346 -0.20202,0.0738 -0.30273,0.11328 -1.74641,0.77815 -2.96289,2.51875 -2.96289,4.56053 l 20,19 -20,19 c 0,0.46195 0.0939,0.96481 0.24609,1.47266 0.0269,0.0873 0.0486,0.17656 0.0801,0.26172 0.0346,0.10107 0.0738,0.20202 0.11328,0.30273 0.77817,1.74641 2.51877,2.96289 4.56055,2.96289 l 19,-20 19,20 c 0.46195,0 0.96481,-0.0939 1.47266,-0.24609 0.0873,-0.0269 0.17656,-0.0486 0.26172,-0.0801 0.10107,-0.0346 0.20202,-0.0738 0.30273,-0.11328 1.74639,-0.77815 2.96287,-2.51875 2.96287,-4.56053 l -20,-19 20,-19 c 0,-0.46195 -0.0939,-0.96481 -0.24609,-1.47266 -0.0269,-0.0873 -0.0486,-0.17656 -0.0801,-0.26172 -0.0346,-0.10107 -0.0738,-0.20202 -0.11328,-0.30273 -0.77817,-1.74641 -2.51877,-2.96289 -4.56055,-2.96289 l -19,20 z"
       style="opacity:0.5;fill:#ef2929;fill-opacity:1;stroke:none;stroke-opacity:1" />
    <path
       style="opacity:0.5;fill:#ef2929;fill-opacity:1;stroke:none;stroke-opacity:1"
       d="m 92.08575,437.11216 c -0.46195,0 -0.96481,0.0939 -1.47266,0.24609 -0.0873,0.0269 -0.17656,0.0486 -0.26172,0.0801 -0.10107,0.0346 -0.20202,0.0738 -0.30273,0.11328 -1.74641,0.77815 -2.96289,2.51875 -2.96289,4.56053 l 20,19 -20,19 c 0,0.46195 0.0939,0.96481 0.24609,1.47266 0.0269,0.0873 0.0486,0.17656 0.0801,0.26172 0.0346,0.10107 0.0738,0.20202 0.11328,0.30273 0.77817,1.74641 2.51877,2.96289 4.56055,2.96289 l 19,-20 19,20 c 0.46195,0 0.96481,-0.0939 1.47266,-0.24609 0.0873,-0.0269 0.17656,-0.0486 0.26172,-0.0801 0.10107,-0.0346 0.20202,-0.0738 0.30273,-0.11328 1.74639,-0.77815 2.96287,-2.51875 2.96287,-4.56053 l -20,-19 20,-19 c 0,-0.46195 -0.0939,-0.96481 -0.24609,-1.47266 -0.0269,-0.0873 -0.0486,-0.17656 -0.0801,-0.26172 -0.0346,-0.10107 -0.0738,-0.20202 -0.11328,-0.30273 -0.77817,-1.74641 -2.51877,-2.96289 -4.56055,-2.96289 l -19,20 z"
       id="rect1041"
       inkscape:connector-curvature="0" />
    <path
       inkscape:connector-curvature="0"
       id="path1178"
       d="M 170,635.11212 H 320"
       style="fill:none;stroke:#000000;stroke-width:1px;stroke-linecap:round;stroke-linejoin:round;stroke-opacity:1" />
    <flowRoot
       xml:space="preserve"
       id="flowRoot1196"
       style="font-style:normal;font-weight:normal;font-size:24px;line-height:1.25;font-family:sans-serif;text-align:center;letter-spacing:0px;word-spacing:0px;text-anchor:middle;fill:#ce5c00;fill-opacity:1;stroke:none"
       transform="translate(82.146297,401.93045)"><flowRegion
         id="flowRegion1192"
         style="font-size:24px;text-align:center;text-anchor:middle;fill:#ce5c00"><rect
           id="rect1190"
           width="150"
           height="30"
           x="57.853703"
           y="143.5681"
           style="font-size:24px;text-align:center;text-anchor:middle;fill:#ce5c00" /></flowRegion><flowPara
         id="flowPara1194"
         style="font-style:italic;font-weight:bold;fill:#ce5c00;fill-opacity:1">profit</flowPara></flowRoot>    <flowRoot
       transform="translate(82.146297,493.79455)"
       style="font-style:normal;font-weight:normal;font-size:24px;line-height:1.25;font-family:sans-serif;text-align:center;letter-spacing:0px;word-spacing:0px;text-anchor:middle;fill:#8f5902;fill-opacity:1;stroke:none"
       id="flowRoot1264"
       xml:space="preserve"><flowRegion
         style="font-size:24px;text-align:center;text-anchor:middle;fill:#8f5902"
         id="flowRegion1260"><rect
           style="font-size:24px;text-align:center;text-anchor:middle;fill:#8f5902"
           y="143.5681"
           x="57.853703"
           height="30"
           width="150"
           id="rect1258" /></flowRegion><flowPara
         id="flowPara1262">24 IPC</flowPara></flowRoot>    <flowRoot
       transform="translate(-119.94355,308.70656)"
       style="font-style:normal;font-weight:normal;font-size:16px;line-height:1.25;font-family:sans-serif;text-align:end;letter-spacing:0px;word-spacing:0px;text-anchor:end;fill:#4e9a06;fill-opacity:1;stroke:none"
       id="flowRoot1288"
       xml:space="preserve"><flowRegion
         style="font-size:16px;text-align:end;text-anchor:end;fill:#4e9a06"
         id="flowRegion1282"><rect
           style="font-size:16px;text-align:end;text-anchor:end;fill:#4e9a06"
           y="143.5681"
           x="129.94354"
           height="20"
           width="70.000008"
           id="rect1280" /></flowRegion><flowPara
         id="flowPara1286"><flowSpan
           id="flowSpan1284"
           style="font-size:13.33333302px">1/6</flowSpan></flowPara></flowRoot>    <flowRoot
       xml:space="preserve"
       id="flowRoot1437"
       style="font-style:normal;font-weight:normal;font-size:16px;line-height:1.25;font-family:sans-serif;text-align:start;letter-spacing:0px;word-spacing:0px;text-anchor:start;fill:#8f5902;fill-opacity:1;stroke:none"
       transform="translate(-119.94355,303.61867)"><flowRegion
         id="flowRegion1429"
         style="font-size:16px;text-align:start;text-anchor:start;fill:#8f5902"><rect
           id="rect1427"
           width="69.999992"
           height="19.999998"
           x="469.94354"
           y="148.65613"
           style="font-size:16px;text-align:start;text-anchor:start;fill:#8f5902" /></flowRegion><flowPara
         id="flowPara1435"><flowSpan
           style="font-size:13.33333302px;text-align:start;text-anchor:start;fill:#8f5902"
           id="flowSpan1433"><flowSpan
   id="flowSpan1431"
   style="font-size:16px;text-align:start;text-anchor:start;fill:#8f5902"> 3</flowSpan>/6</flowSpan></flowPara></flowRoot>    <flowRoot
       xml:space="preserve"
       id="flowRoot1449"
       style="font-style:normal;font-weight:normal;font-size:16px;line-height:1.25;font-family:sans-serif;text-align:end;letter-spacing:0px;word-spacing:0px;text-anchor:end;vector-effect:none;fill:#8f5902;fill-opacity:1;stroke:none;stroke-width:0.99999994px;stroke-linecap:butt;stroke-linejoin:miter;stroke-miterlimit:4;stroke-dasharray:none;stroke-dashoffset:0;stroke-opacity:1"
       transform="translate(-5.0939421,510.04396)"><flowRegion
         id="flowRegion1443"
         style="font-size:16px;text-align:end;text-anchor:end;vector-effect:none;fill:#8f5902;fill-opacity:1;stroke:none;stroke-width:0.99999994px;stroke-linecap:butt;stroke-linejoin:miter;stroke-miterlimit:4;stroke-dasharray:none;stroke-dashoffset:0;stroke-opacity:1"><rect
           id="rect1441"
           width="253.3698"
           height="85.088493"
           x="129.94354"
           y="143.5681"
           style="font-size:16px;text-align:end;text-anchor:end;vector-effect:none;fill:#8f5902;fill-opacity:1;stroke:none;stroke-width:0.99999994px;stroke-linecap:butt;stroke-linejoin:miter;stroke-miterlimit:4;stroke-dasharray:none;stroke-dashoffset:0;stroke-opacity:1" /></flowRegion><flowPara
         style="font-size:16px;text-align:end;text-anchor:end;fill:#8f5902"
         id="flowPara1445">total 12/6</flowPara><flowPara
         id="flowPara1447"
         style="font-size:16px;text-align:end;text-anchor:end;fill:#8f5902">average 2 hits</flowPara></flowRoot>    <flowRoot
       transform="translate(-119.94355,353.61867)"
       style="font-style:normal;font-weight:normal;font-size:16px;line-height:1.25;font-family:sans-serif;text-align:start;letter-spacing:0px;word-spacing:0px;text-anchor:start;fill:#8f5902;fill-opacity:1;stroke:none"
       id="flowRoot1461"
       xml:space="preserve"><flowRegion
         style="font-size:16px;text-align:start;text-anchor:start;fill:#8f5902"
         id="flowRegion1453"><rect
           style="font-size:16px;text-align:start;text-anchor:start;fill:#8f5902"
           y="148.65613"
           x="469.94354"
           height="19.999998"
           width="69.999992"
           id="rect1451" /></flowRegion><flowPara
         id="flowPara1459"><flowSpan
           id="flowSpan1457"
           style="font-size:13.33333302px;text-align:start;text-anchor:start;fill:#8f5902"><flowSpan
   style="font-size:16px;text-align:start;text-anchor:start;fill:#8f5902"
   id="flowSpan1455"> 3</flowSpan>/6</flowSpan></flowPara></flowRoot>    <flowRoot
       xml:space="preserve"
       id="flowRoot1473"
       style="font-style:normal;font-weight:normal;font-size:16px;line-height:1.25;font-family:sans-serif;text-align:start;letter-spacing:0px;word-spacing:0px;text-anchor:start;fill:#8f5902;fill-opacity:1;stroke:none"
       transform="translate(-119.94355,403.61867)"><flowRegion
         id="flowRegion1465"
         style="font-size:16px;text-align:start;text-anchor:start;fill:#8f5902"><rect
           id="rect1463"
           width="69.999992"
           height="19.999998"
           x="469.94354"
           y="148.65613"
           style="font-size:16px;text-align:start;text-anchor:start;fill:#8f5902" /></flowRegion><flowPara
         id="flowPara1471"><flowSpan
           style="font-size:13.33333302px;text-align:start;text-anchor:start;fill:#8f5902"
           id="flowSpan1469"><flowSpan
   id="flowSpan1467"
   style="font-size:16px;text-align:start;text-anchor:start;fill:#8f5902"> 3</flowSpan>/6</flowSpan></flowPara></flowRoot>    <flowRoot
       transform="translate(-119.94355,453.61868)"
       style="font-style:normal;font-weight:normal;font-size:16px;line-height:1.25;font-family:sans-serif;text-align:start;letter-spacing:0px;word-spacing:0px;text-anchor:start;fill:#8f5902;fill-opacity:1;stroke:none"
       id="flowRoot1485"
       xml:space="preserve"><flowRegion
         style="font-size:16px;text-align:start;text-anchor:start;fill:#8f5902"
         id="flowRegion1477"><rect
           style="font-size:16px;text-align:start;text-anchor:start;fill:#8f5902"
           y="148.65613"
           x="469.94354"
           height="19.999998"
           width="69.999992"
           id="rect1475" /></flowRegion><flowPara
         id="flowPara1483"><flowSpan
           id="flowSpan1481"
           style="font-size:13.33333302px;text-align:start;text-anchor:start;fill:#8f5902"><flowSpan
   style="font-size:16px;text-align:start;text-anchor:start;fill:#8f5902"
   id="flowSpan1479"> 3</flowSpan>/6</flowSpan></flowPara></flowRoot>    <flowRoot
       xml:space="preserve"
       id="flowRoot1497"
       style="font-style:normal;font-weight:normal;font-size:16px;line-height:1.25;font-family:sans-serif;text-align:end;letter-spacing:0px;word-spacing:0px;text-anchor:end;fill:#4e9a06;fill-opacity:1;stroke:none"
       transform="translate(-119.94355,358.70656)"><flowRegion
         id="flowRegion1489"
         style="font-size:16px;text-align:end;text-anchor:end;fill:#4e9a06"><rect
           id="rect1487"
           width="70.000008"
           height="20"
           x="129.94354"
           y="143.5681"
           style="font-size:16px;text-align:end;text-anchor:end;fill:#4e9a06" /></flowRegion><flowPara
         id="flowPara1495"><flowSpan
           style="font-size:13.33333302px"
           id="flowSpan1493">1/6</flowSpan></flowPara></flowRoot>    <g
       id="g921"
       transform="translate(-56.91425,-123.25049)">
      <rect
         inkscape:export-ydpi="90"
         inkscape:export-xdpi="90"
         inkscape:export-filename="../../../src/main/res/drawable-xhdpi/tank_icon.png"
         style="fill:#ffffff;fill-opacity:1;stroke:#000000;stroke-opacity:1"
         id="rect3005"
         width="48"
         height="48"
         x="144"
         y="860.36218"
         rx="5"
         ry="5" />
      <path
         sodipodi:nodetypes="cccccccccccccc"
         inkscape:connector-curvature="0"
         id="path3089-3"
         d="m 187.75,885.52218 h -9.5 c 0,-5 -16.5,-5 -16.5,-0.5 v 2.5 c -3,0 -14,2 -14,3.5 v 5 c 0,2 3.5,4 7,4 h 28 c 3,0 5.5,-2.5 5.5,-4.5 v -3 c 0,-1.5 -7.5,-3 -10,-3.5 v -1.5 h 9.5 z"
         style="fill:#4e9a06;fill-opacity:1;stroke:none" />
    </g>
    <g
       transform="translate(-56.91425,-173.2505)"
       id="g935">
      <rect
         ry="5"
         rx="5"
         y="860.36218"
         x="144"
         height="48"
         width="48"
         id="rect931"
         style="fill:#ffffff;fill-opacity:1;stroke:#000000;stroke-opacity:1"
         inkscape:export-filename="../../../src/main/res/drawable-xhdpi/tank_icon.png"
         inkscape:export-xdpi="90"
         inkscape:export-ydpi="90" />
      <path
         style="fill:#4e9a06;fill-opacity:1;stroke:none"
         d="m 187.75,885.52218 h -9.5 c 0,-5 -16.5,-5 -16.5,-0.5 v 2.5 c -3,0 -14,2 -14,3.5 v 5 c 0,2 3.5,4 7,4 h 28 c 3,0 5.5,-2.5 5.5,-4.5 v -3 c 0,-1.5 -7.5,-3 -10,-3.5 v -1.5 h 9.5 z"
         id="path933"
         inkscape:connector-curvature="0"
         sodipodi:nodetypes="cccccccccccccc" />
    </g>
    <g
       id="g1015"
       transform="translate(-56.91425,-23.250992)">
      <rect
         inkscape:export-ydpi="90"
         inkscape:export-xdpi="90"
         inkscape:export-filename="../../../src/main/res/drawable-xhdpi/tank_icon.png"
         style="fill:#ffffff;fill-opacity:1;stroke:#000000;stroke-opacity:1"
         id="rect1011"
         width="48"
         height="48"
         x="144"
         y="860.36218"
         rx="5"
         ry="5" />
      <path
         sodipodi:nodetypes="cccccccccccccc"
         inkscape:connector-curvature="0"
         id="path1013"
         d="m 187.75,885.52218 h -9.5 c 0,-5 -16.5,-5 -16.5,-0.5 v 2.5 c -3,0 -14,2 -14,3.5 v 5 c 0,2 3.5,4 7,4 h 28 c 3,0 5.5,-2.5 5.5,-4.5 v -3 c 0,-1.5 -7.5,-3 -10,-3.5 v -1.5 h 9.5 z"
         style="fill:#4e9a06;fill-opacity:1;stroke:none" />
    </g>
    <g
       transform="translate(-56.91425,-73.250992)"
       id="g1021">
      <rect
         ry="5"
         rx="5"
         y="860.36218"
         x="144"
         height="48"
         width="48"
         id="rect1017"
         style="fill:#ffffff;fill-opacity:1;stroke:#000000;stroke-opacity:1"
         inkscape:export-filename="../../../src/main/res/drawable-xhdpi/tank_icon.png"
         inkscape:export-xdpi="90"
         inkscape:export-ydpi="90" />
      <path
         style="fill:#4e9a06;fill-opacity:1;stroke:none"
         d="m 187.75,885.52218 h -9.5 c 0,-5 -16.5,-5 -16.5,-0.5 v 2.5 c -3,0 -14,2 -14,3.5 v 5 c 0,2 3.5,4 7,4 h 28 c 3,0 5.5,-2.5 5.5,-4.5 v -3 c 0,-1.5 -7.5,-3 -10,-3.5 v -1.5 h 9.5 z"
         id="path1019"
         inkscape:connector-curvature="0"
         sodipodi:nodetypes="cccccccccccccc" />
    </g>
    <flowRoot
       transform="translate(-119.94355,558.70608)"
       style="font-style:normal;font-weight:normal;font-size:16px;line-height:1.25;font-family:sans-serif;text-align:end;letter-spacing:0px;word-spacing:0px;text-anchor:end;fill:#4e9a06;fill-opacity:1;stroke:none"
       id="flowRoot1509"
       xml:space="preserve"><flowRegion
         style="font-size:16px;text-align:end;text-anchor:end;fill:#4e9a06"
         id="flowRegion1501"><rect
           style="font-size:16px;text-align:end;text-anchor:end;fill:#4e9a06"
           y="143.5681"
           x="129.94354"
           height="20"
           width="70.000008"
           id="rect1499" /></flowRegion><flowPara
         id="flowPara1507"><flowSpan
           id="flowSpan1505"
           style="font-size:13.33333302px"><flowSpan
   style="font-size:16px"
   id="flowSpan1503">3</flowSpan>/6</flowSpan></flowPara></flowRoot>    <flowRoot
       xml:space="preserve"
       id="flowRoot1521"
       style="font-style:normal;font-weight:normal;font-size:16px;line-height:1.25;font-family:sans-serif;text-align:end;letter-spacing:0px;word-spacing:0px;text-anchor:end;fill:#4e9a06;fill-opacity:1;stroke:none"
       transform="translate(-119.94355,608.70609)"><flowRegion
         id="flowRegion1513"
         style="font-size:16px;text-align:end;text-anchor:end;fill:#4e9a06"><rect
           id="rect1511"
           width="70.000008"
           height="20"
           x="129.94354"
           y="143.5681"
           style="font-size:16px;text-align:end;text-anchor:end;fill:#4e9a06" /></flowRegion><flowPara
         id="flowPara1519"><flowSpan
           style="font-size:13.33333302px"
           id="flowSpan1517"><flowSpan
   id="flowSpan1515"
   style="font-size:16px">3</flowSpan>/6</flowSpan></flowPara></flowRoot>    <flowRoot
       transform="translate(-119.94355,658.7056)"
       style="font-style:normal;font-weight:normal;font-size:16px;line-height:1.25;font-family:sans-serif;text-align:end;letter-spacing:0px;word-spacing:0px;text-anchor:end;fill:#4e9a06;fill-opacity:1;stroke:none"
       id="flowRoot1533"
       xml:space="preserve"><flowRegion
         style="font-size:16px;text-align:end;text-anchor:end;fill:#4e9a06"
         id="flowRegion1525"><rect
           style="font-size:16px;text-align:end;text-anchor:end;fill:#4e9a06"
           y="143.5681"
           x="129.94354"
           height="20"
           width="70.000008"
           id="rect1523" /></flowRegion><flowPara
         id="flowPara1531"><flowSpan
           id="flowSpan1529"
           style="font-size:13.33333302px"><flowSpan
   style="font-size:16px"
   id="flowSpan1527">3</flowSpan>/6</flowSpan></flowPara></flowRoot>    <flowRoot
       transform="translate(-119.94355,708.7056)"
       style="font-style:normal;font-weight:normal;font-size:16px;line-height:1.25;font-family:sans-serif;text-align:end;letter-spacing:0px;word-spacing:0px;text-anchor:end;fill:#4e9a06;fill-opacity:1;stroke:none"
       id="flowRoot1557"
       xml:space="preserve"><flowRegion
         style="font-size:16px;text-align:end;text-anchor:end;fill:#4e9a06"
         id="flowRegion1549"><rect
           style="font-size:16px;text-align:end;text-anchor:end;fill:#4e9a06"
           y="143.5681"
           x="129.94354"
           height="20"
           width="70.000008"
           id="rect1547" /></flowRegion><flowPara
         id="flowPara1555"><flowSpan
           id="flowSpan1553"
           style="font-size:13.33333302px"><flowSpan
   style="font-size:16px"
   id="flowSpan1551">3</flowSpan>/6</flowSpan></flowPara></flowRoot>    <g
       transform="translate(-56.91425,-273.25001)"
       id="g1169">
      <rect
         ry="5"
         rx="5"
         y="860.36218"
         x="144"
         height="48"
         width="48"
         id="rect1165"
         style="fill:#ffffff;fill-opacity:1;stroke:#000000;stroke-opacity:1"
         inkscape:export-filename="../../../src/main/res/drawable-xhdpi/tank_icon.png"
         inkscape:export-xdpi="90"
         inkscape:export-ydpi="90" />
      <path
         style="fill:#4e9a06;fill-opacity:1;stroke:none"
         d="m 187.75,885.52218 h -9.5 c 0,-5 -16.5,-5 -16.5,-0.5 v 2.5 c -3,0 -14,2 -14,3.5 v 5 c 0,2 3.5,4 7,4 h 28 c 3,0 5.5,-2.5 5.5,-4.5 v -3 c 0,-1.5 -7.5,-3 -10,-3.5 v -1.5 h 9.5 z"
         id="path1167"
         inkscape:connector-curvature="0"
         sodipodi:nodetypes="cccccccccccccc" />
    </g>
    <g
       id="g1181"
       transform="translate(-56.91425,-223.2505)">
      <rect
         inkscape:export-ydpi="90"
         inkscape:export-xdpi="90"
         inkscape:export-filename="../../../src/main/res/drawable-xhdpi/tank_icon.png"
         style="fill:#ffffff;fill-opacity:1;stroke:#000000;stroke-opacity:1"
         id="rect1177"
         width="48"
         height="48"
         x="144"
         y="860.36218"
         rx="5"
         ry="5" />
      <path
         sodipodi:nodetypes="cccccccccccccc"
         inkscape:connector-curvature="0"
         id="path1179"
         d="m 187.75,885.52218 h -9.5 c 0,-5 -16.5,-5 -16.5,-0.5 v 2.5 c -3,0 -14,2 -14,3.5 v 5 c 0,2 3.5,4 7,4 h 28 c 3,0 5.5,-2.5 5.5,-4.5 v -3 c 0,-1.5 -7.5,-3 -10,-3.5 v -1.5 h 9.5 z"
         style="fill:#4e9a06;fill-opacity:1;stroke:none" />
    </g>
    <flowRoot
       xml:space="preserve"
       id="flowRoot1193"
       style="font-style:normal;font-weight:normal;font-size:16px;line-height:1.25;font-family:sans-serif;text-align:end;letter-spacing:0px;word-spacing:0px;text-anchor:end;fill:#4e9a06;fill-opacity:1;stroke:none"
       transform="translate(-119.94355,408.70656)"><flowRegion
         id="flowRegion1185"
         style="font-size:16px;text-align:end;text-anchor:end;fill:#4e9a06"><rect
           id="rect1183"
           width="70.000008"
           height="20"
           x="129.94354"
           y="143.5681"
           style="font-size:16px;text-align:end;text-anchor:end;fill:#4e9a06" /></flowRegion><flowPara
         id="flowPara1191"><flowSpan
           style="font-size:13.33333302px"
           id="flowSpan1189">1/6</flowSpan></flowPara></flowRoot>    <flowRoot
       transform="translate(-119.94355,458.70657)"
       style="font-style:normal;font-weight:normal;font-size:16px;line-height:1.25;font-family:sans-serif;text-align:end;letter-spacing:0px;word-spacing:0px;text-anchor:end;fill:#4e9a06;fill-opacity:1;stroke:none"
       id="flowRoot1205"
       xml:space="preserve"><flowRegion
         style="font-size:16px;text-align:end;text-anchor:end;fill:#4e9a06"
         id="flowRegion1197"><rect
           style="font-size:16px;text-align:end;text-anchor:end;fill:#4e9a06"
           y="143.5681"
           x="129.94354"
           height="20"
           width="70.000008"
           id="rect1195" /></flowRegion><flowPara
         id="flowPara1203"><flowSpan
           id="flowSpan1201"
           style="font-size:13.33333302px"><flowSpan
   style="font-size:16px"
   id="flowSpan1199">3</flowSpan>/6</flowSpan></flowPara></flowRoot>    <flowRoot
       xml:space="preserve"
       id="flowRoot1217"
       style="font-style:normal;font-weight:normal;font-size:16px;line-height:1.25;font-family:sans-serif;text-align:end;letter-spacing:0px;word-spacing:0px;text-anchor:end;fill:#4e9a06;fill-opacity:1;stroke:none"
       transform="translate(-119.94355,508.70608)"><flowRegion
         id="flowRegion1209"
         style="font-size:16px;text-align:end;text-anchor:end;fill:#4e9a06"><rect
           id="rect1207"
           width="70.000008"
           height="20"
           x="129.94354"
           y="143.5681"
           style="font-size:16px;text-align:end;text-anchor:end;fill:#4e9a06" /></flowRegion><flowPara
         id="flowPara1215"><flowSpan
           style="font-size:13.33333302px"
           id="flowSpan1213"><flowSpan
   id="flowSpan1211"
   style="font-size:16px">3</flowSpan>/6</flowSpan></flowPara></flowRoot>    <flowRoot
       xml:space="preserve"
       id="flowRoot1287"
       style="font-style:normal;font-weight:normal;font-size:24px;line-height:1.25;font-family:sans-serif;text-align:center;letter-spacing:0px;word-spacing:0px;text-anchor:middle;fill:#4e9a06;fill-opacity:1;stroke:none"
       transform="translate(82.146297,313.79454)"><flowRegion
         id="flowRegion1283"
         style="font-size:24px;text-align:center;text-anchor:middle;fill:#4e9a06"><rect
           id="rect1281"
           width="150"
           height="30"
           x="57.853703"
           y="143.5681"
           style="font-size:24px;text-align:center;text-anchor:middle;fill:#4e9a06" /></flowRegion><flowPara
         id="flowPara1285">6 IPC</flowPara></flowRoot>    <path
       style="fill:none;stroke:#000000;stroke-width:1px;stroke-linecap:round;stroke-linejoin:round;stroke-opacity:1"
       d="m 110,535.11216 c 0,0 24.13483,0.0227 30.03348,0.019 C 170,535.11215 140.08008,485.11211 170,485.11211 h 90"
       id="path1307"
       inkscape:connector-curvature="0"
       sodipodi:nodetypes="cssc" />
    <flowRoot
       xml:space="preserve"
       id="flowRoot1365"
       style="font-style:normal;font-weight:normal;font-size:32px;line-height:1.25;font-family:sans-serif;text-align:center;letter-spacing:0px;word-spacing:0px;text-anchor:middle;fill:#4e9a06;fill-opacity:1;stroke:none"
       transform="translate(74.660945,271.98916)"><flowRegion
         id="flowRegion1361"
         style="font-size:32px;text-align:center;text-anchor:middle;fill:#4e9a06"><rect
           id="rect1359"
           width="204.0325"
           height="124.89666"
           x="-66.35659"
           y="31.317829"
           style="font-size:32px;text-align:center;text-anchor:middle;fill:#4e9a06" /></flowRegion><flowPara
         style="font-weight:bold"
         id="flowPara1363">3 <flowSpan
   style="font-size:24px"
   id="flowSpan1369">infantry</flowSpan></flowPara><flowPara
         style="font-weight:bold"
         id="flowPara1367">7 tanks</flowPara></flowRoot>  </g>
</svg>
